<svg width="718" height="150" viewBox="0 0 718 150" fill="none" xmlns="http://www.w3.org/2000/svg">
<path d="M64.7876 118V30.5H79.7876V118H64.7876ZM9.5376 118V30.5H24.5376V118H9.5376ZM22.2876 79.5V67.25H67.6626V79.5H22.2876ZM137.425 119.5C129.009 119.5 121.55 117.625 115.05 113.875C108.634 110.042 103.592 104.75 99.9253 98C96.2586 91.1667 94.4253 83.25 94.4253 74.25C94.4253 65.3333 96.2586 57.5 99.9253 50.75C103.592 43.9167 108.634 38.5833 115.05 34.75C121.55 30.9167 129.009 29 137.425 29C146.009 29 153.55 30.9167 160.05 34.75C166.55 38.5833 171.592 43.9167 175.175 50.75C178.759 57.5 180.55 65.3333 180.55 74.25C180.55 83.25 178.759 91.1667 175.175 98C171.592 104.75 166.55 110.042 160.05 113.875C153.55 117.625 146.009 119.5 137.425 119.5ZM137.55 106C143.134 106 148.009 104.75 152.175 102.25C156.342 99.6667 159.55 96 161.8 91.25C164.05 86.5 165.175 80.8333 165.175 74.25C165.175 67.6667 164.05 62 161.8 57.25C159.55 52.5 156.342 48.875 152.175 46.375C148.009 43.7917 143.134 42.5 137.55 42.5C131.967 42.5 127.092 43.7917 122.925 46.375C118.759 48.875 115.509 52.5 113.175 57.25C110.925 62 109.8 67.6667 109.8 74.25C109.8 80.8333 110.925 86.5 113.175 91.25C115.509 96 118.759 99.6667 122.925 102.25C127.092 104.75 131.967 106 137.55 106ZM195.207 118V30.5H212.957L240.957 87L268.707 30.5H286.582V118H271.582V56.25L246.832 105.75H235.082L210.207 56.375V118H195.207ZM304.337 118V30.5H360.837V42.625H319.337V67.75H357.087V79.625H319.337V105.875H360.837V118H304.337ZM396.978 118V42.625H371.228V30.5H437.603V42.625H411.853V118H396.978ZM449.967 118V30.5H481.342C488.259 30.5 493.967 31.7083 498.467 34.125C503.051 36.4583 506.426 39.625 508.592 43.625C510.842 47.5417 511.967 52 511.967 57C511.967 61.6667 510.884 66 508.717 70C506.551 74 503.176 77.2083 498.592 79.625C494.009 82.0417 488.134 83.25 480.967 83.25H464.967V118H449.967ZM495.592 118L477.217 79.375H493.467L512.717 118H495.592ZM464.967 72.125H480.342C485.926 72.125 490.009 70.7917 492.592 68.125C495.259 65.375 496.592 61.7917 496.592 57.375C496.592 53.0417 495.301 49.5833 492.717 47C490.134 44.3333 486.009 43 480.342 43H464.967V72.125ZM527.482 118V30.5H542.482V118H527.482ZM598.95 119.5C590.283 119.5 582.783 117.625 576.45 113.875C570.2 110.042 565.366 104.75 561.95 98C558.616 91.1667 556.95 83.2917 556.95 74.375C556.95 65.375 558.616 57.5 561.95 50.75C565.366 43.9167 570.2 38.5833 576.45 34.75C582.783 30.9167 590.283 29 598.95 29C609.366 29 617.866 31.5833 624.45 36.75C631.033 41.8333 635.2 49.0417 636.95 58.375H620.45C619.283 53.4583 616.908 49.5833 613.325 46.75C609.741 43.9167 604.908 42.5 598.825 42.5C593.325 42.5 588.575 43.7917 584.575 46.375C580.658 48.875 577.616 52.5417 575.45 57.375C573.366 62.125 572.325 67.7917 572.325 74.375C572.325 80.9583 573.366 86.625 575.45 91.375C577.616 96.0417 580.658 99.6667 584.575 102.25C588.575 104.75 593.325 106 598.825 106C604.908 106 609.741 104.708 613.325 102.125C616.908 99.4583 619.283 95.7917 620.45 91.125H636.95C635.283 99.9583 631.116 106.917 624.45 112C617.866 117 609.366 119.5 598.95 119.5ZM681.002 119.5C674.669 119.5 669.044 118.375 664.127 116.125C659.211 113.875 655.377 110.667 652.627 106.5C649.877 102.333 648.461 97.375 648.377 91.625H664.252C664.252 94.5417 664.919 97.1667 666.252 99.5C667.669 101.75 669.586 103.542 672.002 104.875C674.502 106.208 677.502 106.875 681.002 106.875C684.002 106.875 686.586 106.417 688.752 105.5C691.002 104.5 692.711 103.125 693.877 101.375C695.127 99.5417 695.752 97.4167 695.752 95C695.752 92.25 695.086 90 693.752 88.25C692.502 86.4167 690.752 84.875 688.502 83.625C686.252 82.375 683.669 81.2917 680.752 80.375C677.836 79.375 674.752 78.3333 671.502 77.25C664.586 74.9167 659.377 71.9583 655.877 68.375C652.377 64.7083 650.627 59.8333 650.627 53.75C650.627 48.6667 651.836 44.2917 654.252 40.625C656.669 36.9583 660.044 34.125 664.377 32.125C668.794 30.0417 673.877 29 679.627 29C685.461 29 690.544 30.0417 694.877 32.125C699.294 34.2083 702.752 37.125 705.252 40.875C707.836 44.5417 709.169 48.9583 709.252 54.125H693.252C693.169 51.9583 692.586 49.9583 691.502 48.125C690.419 46.2083 688.836 44.6667 686.752 43.5C684.752 42.25 682.294 41.625 679.377 41.625C676.877 41.5417 674.627 41.9583 672.627 42.875C670.711 43.7083 669.169 44.9583 668.002 46.625C666.919 48.2083 666.377 50.2083 666.377 52.625C666.377 54.9583 666.877 56.9167 667.877 58.5C668.961 60 670.502 61.2917 672.502 62.375C674.502 63.375 676.836 64.3333 679.502 65.25C682.169 66.1667 685.086 67.1667 688.252 68.25C692.586 69.6667 696.502 71.4167 700.002 73.5C703.586 75.5 706.419 78.125 708.502 81.375C710.586 84.625 711.627 88.8333 711.627 94C711.627 98.5 710.461 102.708 708.127 106.625C705.794 110.458 702.377 113.583 697.877 116C693.377 118.333 687.752 119.5 681.002 119.5Z" fill="white"/>
</svg>
