<svg width="157" height="30" viewBox="0 0 157 30" fill="none" xmlns="http://www.w3.org/2000/svg">
<path d="M41.632 24V6.72H44.032V13.872C44.432 13.168 44.984 12.616 45.688 12.216C46.408 11.816 47.2 11.616 48.064 11.616C49.024 11.616 49.848 11.816 50.536 12.216C51.224 12.6 51.752 13.184 52.12 13.968C52.488 14.736 52.672 15.704 52.672 16.872V24H50.296V17.112C50.296 15.992 50.056 15.144 49.576 14.568C49.096 13.976 48.384 13.68 47.44 13.68C46.8 13.68 46.224 13.832 45.712 14.136C45.2 14.44 44.792 14.888 44.488 15.48C44.184 16.056 44.032 16.76 44.032 17.592V24H41.632ZM61.5014 24.288C60.3654 24.288 59.3414 24.024 58.4294 23.496C57.5334 22.968 56.8214 22.232 56.2934 21.288C55.7814 20.328 55.5254 19.224 55.5254 17.976C55.5254 16.696 55.7894 15.584 56.3174 14.64C56.8454 13.68 57.5654 12.936 58.4774 12.408C59.3894 11.88 60.4134 11.616 61.5494 11.616C62.7014 11.616 63.7254 11.88 64.6214 12.408C65.5174 12.936 66.2214 13.672 66.7334 14.616C67.2614 15.56 67.5254 16.672 67.5254 17.952C67.5254 19.232 67.2614 20.344 66.7334 21.288C66.2214 22.232 65.5094 22.968 64.5974 23.496C63.6854 24.024 62.6534 24.288 61.5014 24.288ZM61.5014 22.224C62.1574 22.224 62.7494 22.064 63.2774 21.744C63.8214 21.424 64.2534 20.952 64.5734 20.328C64.9094 19.688 65.0774 18.896 65.0774 17.952C65.0774 17.008 64.9174 16.224 64.5974 15.6C64.2774 14.96 63.8454 14.48 63.3014 14.16C62.7734 13.84 62.1894 13.68 61.5494 13.68C60.9094 13.68 60.3174 13.84 59.7734 14.16C59.2294 14.48 58.7894 14.96 58.4534 15.6C58.1334 16.224 57.9734 17.008 57.9734 17.952C57.9734 18.896 58.1334 19.688 58.4534 20.328C58.7894 20.952 59.2214 21.424 59.7494 21.744C60.2934 22.064 60.8774 22.224 61.5014 22.224ZM70.5886 24V11.904H72.7486L72.9166 13.608C73.3006 12.984 73.8126 12.496 74.4526 12.144C75.0926 11.792 75.8126 11.616 76.6126 11.616C77.2206 11.616 77.7726 11.704 78.2686 11.88C78.7646 12.04 79.2046 12.288 79.5886 12.624C79.9726 12.96 80.2846 13.376 80.5246 13.872C80.9566 13.168 81.5326 12.616 82.2526 12.216C82.9886 11.816 83.7646 11.616 84.5806 11.616C85.5566 11.616 86.3966 11.816 87.1006 12.216C87.8046 12.6 88.3406 13.184 88.7086 13.968C89.0766 14.736 89.2606 15.696 89.2606 16.848V24H86.8846V17.088C86.8846 15.968 86.6526 15.12 86.1886 14.544C85.7406 13.968 85.0766 13.68 84.1966 13.68C83.6046 13.68 83.0766 13.832 82.6126 14.136C82.1486 14.44 81.7806 14.88 81.5086 15.456C81.2526 16.032 81.1246 16.736 81.1246 17.568V24H78.7246V17.088C78.7246 15.968 78.4926 15.12 78.0286 14.544C77.5806 13.968 76.9166 13.68 76.0366 13.68C75.4766 13.68 74.9646 13.832 74.5006 14.136C74.0366 14.44 73.6686 14.88 73.3966 15.456C73.1246 16.032 72.9886 16.736 72.9886 17.568V24H70.5886ZM98.074 24.288C96.922 24.288 95.898 24.024 95.002 23.496C94.106 22.968 93.402 22.232 92.89 21.288C92.394 20.344 92.146 19.248 92.146 18C92.146 16.72 92.394 15.608 92.89 14.664C93.402 13.704 94.106 12.96 95.002 12.432C95.898 11.888 96.938 11.616 98.122 11.616C99.306 11.616 100.322 11.88 101.17 12.408C102.018 12.936 102.674 13.64 103.138 14.52C103.602 15.384 103.834 16.344 103.834 17.4C103.834 17.56 103.826 17.736 103.81 17.928C103.81 18.104 103.802 18.304 103.786 18.528H93.898V16.824H101.434C101.386 15.816 101.05 15.032 100.426 14.472C99.802 13.896 99.026 13.608 98.098 13.608C97.442 13.608 96.842 13.76 96.298 14.064C95.754 14.352 95.314 14.784 94.978 15.36C94.658 15.92 94.498 16.632 94.498 17.496V18.168C94.498 19.064 94.658 19.824 94.978 20.448C95.314 21.056 95.754 21.52 96.298 21.84C96.842 22.144 97.434 22.296 98.074 22.296C98.842 22.296 99.474 22.128 99.97 21.792C100.466 21.456 100.834 21 101.074 20.424H103.474C103.266 21.16 102.914 21.824 102.418 22.416C101.922 22.992 101.306 23.448 100.57 23.784C99.85 24.12 99.018 24.288 98.074 24.288ZM111.404 24C110.636 24 109.972 23.88 109.412 23.64C108.852 23.4 108.42 23 108.116 22.44C107.812 21.88 107.66 21.12 107.66 20.16V13.944H105.572V11.904H107.66L107.948 8.88H110.06V11.904H113.492V13.944H110.06V20.184C110.06 20.872 110.204 21.344 110.492 21.6C110.78 21.84 111.276 21.96 111.98 21.96H113.372V24H111.404ZM116.379 24V11.904H118.539L118.755 14.184C119.027 13.64 119.379 13.184 119.811 12.816C120.243 12.432 120.747 12.136 121.323 11.928C121.915 11.72 122.587 11.616 123.339 11.616V14.16H122.475C121.979 14.16 121.507 14.224 121.059 14.352C120.611 14.464 120.211 14.664 119.859 14.952C119.523 15.24 119.259 15.632 119.067 16.128C118.875 16.624 118.779 17.24 118.779 17.976V24H116.379ZM125.951 24V11.904H128.351V24H125.951ZM127.175 9.624C126.711 9.624 126.327 9.48 126.023 9.192C125.735 8.904 125.591 8.536 125.591 8.088C125.591 7.656 125.735 7.304 126.023 7.032C126.327 6.744 126.711 6.6 127.175 6.6C127.623 6.6 127.999 6.744 128.303 7.032C128.607 7.304 128.759 7.656 128.759 8.088C128.759 8.536 128.607 8.904 128.303 9.192C127.999 9.48 127.623 9.624 127.175 9.624ZM137.615 24.288C136.447 24.288 135.407 24.024 134.495 23.496C133.583 22.952 132.863 22.208 132.335 21.264C131.823 20.32 131.567 19.224 131.567 17.976C131.567 16.712 131.823 15.608 132.335 14.664C132.863 13.704 133.583 12.96 134.495 12.432C135.407 11.888 136.447 11.616 137.615 11.616C139.087 11.616 140.319 12 141.311 12.768C142.303 13.536 142.935 14.576 143.207 15.888H140.711C140.551 15.184 140.183 14.64 139.607 14.256C139.047 13.872 138.375 13.68 137.591 13.68C136.951 13.68 136.359 13.848 135.815 14.184C135.271 14.504 134.831 14.984 134.495 15.624C134.175 16.248 134.015 17.024 134.015 17.952C134.015 18.64 134.111 19.256 134.303 19.8C134.495 20.328 134.751 20.776 135.071 21.144C135.407 21.512 135.791 21.792 136.223 21.984C136.655 22.16 137.111 22.248 137.591 22.248C138.119 22.248 138.591 22.168 139.007 22.008C139.439 21.832 139.799 21.576 140.087 21.24C140.391 20.904 140.599 20.504 140.711 20.04H143.207C142.935 21.32 142.303 22.352 141.311 23.136C140.319 23.904 139.087 24.288 137.615 24.288ZM150.935 24.288C149.911 24.288 149.015 24.12 148.247 23.784C147.479 23.448 146.871 22.976 146.423 22.368C145.975 21.76 145.703 21.048 145.607 20.232H148.055C148.135 20.616 148.287 20.968 148.511 21.288C148.751 21.608 149.071 21.864 149.471 22.056C149.887 22.248 150.375 22.344 150.935 22.344C151.463 22.344 151.895 22.272 152.231 22.128C152.583 21.968 152.839 21.76 152.999 21.504C153.159 21.232 153.239 20.944 153.239 20.64C153.239 20.192 153.127 19.856 152.903 19.632C152.695 19.392 152.375 19.208 151.943 19.08C151.527 18.936 151.023 18.808 150.431 18.696C149.871 18.6 149.327 18.472 148.799 18.312C148.287 18.136 147.823 17.92 147.407 17.664C147.007 17.408 146.687 17.088 146.447 16.704C146.207 16.304 146.087 15.816 146.087 15.24C146.087 14.552 146.271 13.936 146.639 13.392C147.007 12.832 147.527 12.4 148.199 12.096C148.887 11.776 149.695 11.616 150.623 11.616C151.967 11.616 153.047 11.936 153.863 12.576C154.679 13.216 155.159 14.12 155.303 15.288H152.975C152.911 14.744 152.671 14.328 152.255 14.04C151.839 13.736 151.287 13.584 150.599 13.584C149.911 13.584 149.383 13.72 149.015 13.992C148.647 14.264 148.463 14.624 148.463 15.072C148.463 15.36 148.567 15.616 148.775 15.84C148.983 16.064 149.287 16.256 149.687 16.416C150.103 16.56 150.607 16.696 151.199 16.824C152.047 16.984 152.807 17.184 153.479 17.424C154.151 17.664 154.687 18.016 155.087 18.48C155.487 18.944 155.687 19.608 155.687 20.472C155.703 21.224 155.511 21.888 155.111 22.464C154.727 23.04 154.175 23.488 153.455 23.808C152.751 24.128 151.911 24.288 150.935 24.288Z" fill="white"/>
<path fill-rule="evenodd" clip-rule="evenodd" d="M18.1924 2.25977C17.5288 1.8205 16.6717 1.8205 16.0081 2.25977L5.02907 9.52223L5.02805 9.52286C4.4749 9.89157 4.14465 10.5068 4.14465 11.1608V12.7722C5.42359 13.1802 6.34945 14.3735 6.34945 15.7821C6.34945 17.5273 4.92808 18.9421 3.17479 18.9421C1.42137 18.9421 0 17.5273 0 15.7821C0 14.3733 0.926119 13.1799 2.20532 12.7721V11.1608C2.20532 9.85654 2.86353 8.64139 3.95121 7.91756L3.95351 7.91603L14.9342 0.65244L14.9344 0.652186C16.2485 -0.21748 17.9521 -0.217353 19.2662 0.652313L30.2509 7.92022C31.3429 8.6405 32 9.85819 32 11.1657V26.1067C32 28.2599 30.2448 30 28.0886 30H6.11675C3.95351 30 2.20532 28.2529 2.20532 26.1067C2.20532 25.0036 2.62305 23.9357 3.38608 23.125L3.38723 23.1238L8.60629 17.5451C9.67726 16.4014 11.5106 16.4375 12.5306 17.6312L12.5316 17.6324L16.0541 21.7384L16.0545 21.7389C16.3523 22.0842 16.8949 22.0541 17.1521 21.6798L17.1524 21.6794L21.7104 15.0191C21.2708 14.4767 21.0076 13.7869 21.0076 13.0358C21.0076 11.2906 22.429 9.87583 24.1822 9.87583C25.9357 9.87583 27.357 11.2906 27.357 13.0358C27.357 14.7811 25.9357 16.1959 24.1822 16.1959C23.8872 16.1959 23.6014 16.1558 23.3303 16.0808L18.7544 22.7671L18.7538 22.7683C17.7749 24.1946 15.7077 24.3024 14.5816 22.9947L11.0553 18.884L11.0537 18.8822C10.7881 18.5711 10.3084 18.5585 10.025 18.8611L4.80427 24.4416L4.80197 24.444C4.37914 24.8931 4.14465 25.4879 4.14465 26.1067C4.14465 27.1889 5.02677 28.0697 6.11675 28.0697H28.0886C29.1759 28.0697 30.0608 27.1917 30.0608 26.1067V11.1657C30.0608 10.5047 29.729 9.89169 29.1797 9.52933L18.1924 2.25977ZM23.5265 14.0782C23.7166 14.1969 23.9414 14.2655 24.1822 14.2655C24.8647 14.2655 25.4177 13.715 25.4177 13.0358C25.4177 12.3566 24.8647 11.8062 24.1822 11.8062C23.4999 11.8062 22.9469 12.3566 22.9469 13.0358C22.9469 13.4609 23.1634 13.8355 23.4928 14.0564C23.5041 14.0634 23.5154 14.0707 23.5265 14.0782ZM3.17479 14.5524C2.49247 14.5524 1.93933 15.1028 1.93933 15.7821C1.93933 16.4613 2.49247 17.0117 3.17479 17.0117C3.85711 17.0117 4.41025 16.4613 4.41025 15.7821C4.41025 15.1028 3.85711 14.5524 3.17479 14.5524Z" fill="#052EAD"/>
</svg>
