<svg width="1966" height="254" viewBox="0 0 1966 254" fill="none" xmlns="http://www.w3.org/2000/svg">
<path d="M154.699 249.2V4.20018H196.699V249.2H154.699ZM-0.000585124 249.2V4.20018H41.9994V249.2H-0.000585124ZM35.6994 141.4V107.1H162.749V141.4H35.6994ZM358.085 253.4C334.518 253.4 313.635 248.15 295.435 237.65C277.468 226.917 263.352 212.1 253.085 193.2C242.818 174.067 237.685 151.9 237.685 126.7C237.685 101.734 242.818 79.8002 253.085 60.9002C263.352 41.7669 277.468 26.8335 295.435 16.1002C313.635 5.36686 334.518 0.000190973 358.085 0.000190973C382.118 0.000190973 403.235 5.36686 421.435 16.1002C439.635 26.8335 453.752 41.7669 463.785 60.9002C473.818 79.8002 478.835 101.734 478.835 126.7C478.835 151.9 473.818 174.067 463.785 193.2C453.752 212.1 439.635 226.917 421.435 237.65C403.235 248.15 382.118 253.4 358.085 253.4ZM358.435 215.6C374.068 215.6 387.718 212.1 399.385 205.1C411.052 197.867 420.035 187.6 426.335 174.3C432.635 161 435.785 145.134 435.785 126.7C435.785 108.267 432.635 92.4002 426.335 79.1002C420.035 65.8002 411.052 55.6502 399.385 48.6502C387.718 41.4169 374.068 37.8002 358.435 37.8002C342.802 37.8002 329.152 41.4169 317.485 48.6502C305.818 55.6502 296.718 65.8002 290.185 79.1002C283.885 92.4002 280.735 108.267 280.735 126.7C280.735 145.134 283.885 161 290.185 174.3C296.718 187.6 305.818 197.867 317.485 205.1C329.152 212.1 342.802 215.6 358.435 215.6ZM519.872 249.2V4.20018H569.572L647.972 162.4L725.672 4.20018H775.722V249.2H733.722V76.3002L664.422 214.9H631.522L561.872 76.6502V249.2H519.872ZM825.439 249.2V4.20018H983.639V38.1502H867.439V108.5H973.139V141.75H867.439V215.25H983.639V249.2H825.439ZM1084.83 249.2V38.1502H1012.73V4.20018H1198.58V38.1502H1126.48V249.2H1084.83ZM1233.2 249.2V4.20018H1321.05C1340.42 4.20018 1356.4 7.58352 1369 14.3502C1381.84 20.8835 1391.29 29.7502 1397.35 40.9502C1403.65 51.9168 1406.8 64.4002 1406.8 78.4002C1406.8 91.4669 1403.77 103.6 1397.7 114.8C1391.64 126 1382.19 134.984 1369.35 141.75C1356.52 148.517 1340.07 151.9 1320 151.9H1275.2V249.2H1233.2ZM1360.95 249.2L1309.5 141.05H1355L1408.9 249.2H1360.95ZM1275.2 120.75H1318.25C1333.89 120.75 1345.32 117.017 1352.55 109.55C1360.02 101.85 1363.75 91.8169 1363.75 79.4502C1363.75 67.3169 1360.14 57.6335 1352.9 50.4002C1345.67 42.9335 1334.12 39.2002 1318.25 39.2002H1275.2V120.75ZM1450.24 249.2V4.20018H1492.24V249.2H1450.24ZM1650.35 253.4C1626.09 253.4 1605.09 248.15 1587.35 237.65C1569.85 226.917 1556.32 212.1 1546.75 193.2C1537.42 174.067 1532.75 152.017 1532.75 127.05C1532.75 101.85 1537.42 79.8002 1546.75 60.9002C1556.32 41.7669 1569.85 26.8335 1587.35 16.1002C1605.09 5.36686 1626.09 0.000190973 1650.35 0.000190973C1679.52 0.000190973 1703.32 7.23352 1721.75 21.7002C1740.19 35.9335 1751.85 56.1168 1756.75 82.2502H1710.55C1707.29 68.4835 1700.64 57.6335 1690.6 49.7002C1680.57 41.7668 1667.04 37.8002 1650 37.8002C1634.6 37.8002 1621.3 41.4169 1610.1 48.6502C1599.14 55.6502 1590.62 65.9169 1584.55 79.4502C1578.72 92.7502 1575.8 108.617 1575.8 127.05C1575.8 145.484 1578.72 161.35 1584.55 174.65C1590.62 187.717 1599.14 197.867 1610.1 205.1C1621.3 212.1 1634.6 215.6 1650 215.6C1667.04 215.6 1680.57 211.984 1690.6 204.75C1700.64 197.284 1707.29 187.017 1710.55 173.95H1756.75C1752.09 198.684 1740.42 218.167 1721.75 232.4C1703.32 246.4 1679.52 253.4 1650.35 253.4ZM1880.1 253.4C1862.37 253.4 1846.62 250.25 1832.85 243.95C1819.08 237.65 1808.35 228.667 1800.65 217C1792.95 205.334 1788.98 191.45 1788.75 175.35H1833.2C1833.2 183.517 1835.07 190.867 1838.8 197.4C1842.77 203.7 1848.13 208.717 1854.9 212.45C1861.9 216.184 1870.3 218.05 1880.1 218.05C1888.5 218.05 1895.73 216.767 1901.8 214.2C1908.1 211.4 1912.88 207.55 1916.15 202.65C1919.65 197.517 1921.4 191.567 1921.4 184.8C1921.4 177.1 1919.53 170.8 1915.8 165.9C1912.3 160.767 1907.4 156.45 1901.1 152.95C1894.8 149.45 1887.57 146.417 1879.4 143.85C1871.23 141.05 1862.6 138.134 1853.5 135.1C1834.13 128.567 1819.55 120.284 1809.75 110.25C1799.95 99.9835 1795.05 86.3335 1795.05 69.3002C1795.05 55.0669 1798.43 42.8168 1805.2 32.5502C1811.97 22.2835 1821.42 14.3502 1833.55 8.75018C1845.92 2.91685 1860.15 0.000190973 1876.25 0.000190973C1892.58 0.000190973 1906.82 2.91685 1918.95 8.75018C1931.32 14.5835 1941 22.7502 1948 33.2502C1955.23 43.5169 1958.97 55.8835 1959.2 70.3502H1914.4C1914.17 64.2835 1912.53 58.6835 1909.5 53.5502C1906.47 48.1835 1902.03 43.8669 1896.2 40.6002C1890.6 37.1002 1883.72 35.3502 1875.55 35.3502C1868.55 35.1169 1862.25 36.2835 1856.65 38.8502C1851.28 41.1835 1846.97 44.6835 1843.7 49.3502C1840.67 53.7835 1839.15 59.3835 1839.15 66.1502C1839.15 72.6835 1840.55 78.1669 1843.35 82.6002C1846.38 86.8002 1850.7 90.4169 1856.3 93.4502C1861.9 96.2502 1868.43 98.9335 1875.9 101.5C1883.37 104.067 1891.53 106.867 1900.4 109.9C1912.53 113.867 1923.5 118.767 1933.3 124.6C1943.33 130.2 1951.27 137.55 1957.1 146.65C1962.93 155.75 1965.85 167.534 1965.85 182C1965.85 194.6 1962.58 206.384 1956.05 217.35C1949.52 228.084 1939.95 236.834 1927.35 243.6C1914.75 250.134 1899 253.4 1880.1 253.4Z" fill="white"/>
</svg>
