<svg width="719" height="185" viewBox="0 0 719 185" fill="none" xmlns="http://www.w3.org/2000/svg">
<path d="M64.125 135V47.5H79.125V135H64.125ZM8.875 135V47.5H23.875V135H8.875ZM21.625 96.5V84.25H67V96.5H21.625ZM136.763 136.5C128.346 136.5 120.888 134.625 114.388 130.875C107.971 127.042 102.929 121.75 99.2627 115C95.596 108.167 93.7627 100.25 93.7627 91.25C93.7627 82.3333 95.596 74.5 99.2627 67.75C102.929 60.9167 107.971 55.5833 114.388 51.75C120.888 47.9167 128.346 46 136.763 46C145.346 46 152.888 47.9167 159.388 51.75C165.888 55.5833 170.929 60.9167 174.513 67.75C178.096 74.5 179.888 82.3333 179.888 91.25C179.888 100.25 178.096 108.167 174.513 115C170.929 121.75 165.888 127.042 159.388 130.875C152.888 134.625 145.346 136.5 136.763 136.5ZM136.888 123C142.471 123 147.346 121.75 151.513 119.25C155.679 116.667 158.888 113 161.138 108.25C163.388 103.5 164.513 97.8333 164.513 91.25C164.513 84.6667 163.388 79 161.138 74.25C158.888 69.5 155.679 65.875 151.513 63.375C147.346 60.7917 142.471 59.5 136.888 59.5C131.304 59.5 126.429 60.7917 122.263 63.375C118.096 65.875 114.846 69.5 112.513 74.25C110.263 79 109.138 84.6667 109.138 91.25C109.138 97.8333 110.263 103.5 112.513 108.25C114.846 113 118.096 116.667 122.263 119.25C126.429 121.75 131.304 123 136.888 123ZM194.544 135V47.5H212.294L240.294 104L268.044 47.5H285.919V135H270.919V73.25L246.169 122.75H234.419L209.544 73.375V135H194.544ZM303.675 135V47.5H360.175V59.625H318.675V84.75H356.425V96.625H318.675V122.875H360.175V135H303.675ZM396.315 135V59.625H370.565V47.5H436.94V59.625H411.19V135H396.315ZM449.305 135V47.5H480.68C487.596 47.5 493.305 48.7083 497.805 51.125C502.388 53.4583 505.763 56.625 507.93 60.625C510.18 64.5417 511.305 69 511.305 74C511.305 78.6667 510.221 83 508.055 87C505.888 91 502.513 94.2083 497.93 96.625C493.346 99.0417 487.471 100.25 480.305 100.25H464.305V135H449.305ZM494.93 135L476.555 96.375H492.805L512.055 135H494.93ZM464.305 89.125H479.68C485.263 89.125 489.346 87.7917 491.93 85.125C494.596 82.375 495.93 78.7917 495.93 74.375C495.93 70.0417 494.638 66.5833 492.055 64C489.471 61.3333 485.346 60 479.68 60H464.305V89.125ZM526.819 135V47.5H541.819V135H526.819ZM598.287 136.5C589.62 136.5 582.12 134.625 575.787 130.875C569.537 127.042 564.704 121.75 561.287 115C557.954 108.167 556.287 100.292 556.287 91.375C556.287 82.375 557.954 74.5 561.287 67.75C564.704 60.9167 569.537 55.5833 575.787 51.75C582.12 47.9167 589.62 46 598.287 46C608.704 46 617.204 48.5833 623.787 53.75C630.37 58.8333 634.537 66.0417 636.287 75.375H619.787C618.62 70.4583 616.245 66.5833 612.662 63.75C609.079 60.9167 604.245 59.5 598.162 59.5C592.662 59.5 587.912 60.7917 583.912 63.375C579.995 65.875 576.954 69.5417 574.787 74.375C572.704 79.125 571.662 84.7917 571.662 91.375C571.662 97.9583 572.704 103.625 574.787 108.375C576.954 113.042 579.995 116.667 583.912 119.25C587.912 121.75 592.662 123 598.162 123C604.245 123 609.079 121.708 612.662 119.125C616.245 116.458 618.62 112.792 619.787 108.125H636.287C634.62 116.958 630.454 123.917 623.787 129C617.204 134 608.704 136.5 598.287 136.5ZM680.34 136.5C674.007 136.5 668.382 135.375 663.465 133.125C658.548 130.875 654.715 127.667 651.965 123.5C649.215 119.333 647.798 114.375 647.715 108.625H663.59C663.59 111.542 664.257 114.167 665.59 116.5C667.007 118.75 668.923 120.542 671.34 121.875C673.84 123.208 676.84 123.875 680.34 123.875C683.34 123.875 685.923 123.417 688.09 122.5C690.34 121.5 692.048 120.125 693.215 118.375C694.465 116.542 695.09 114.417 695.09 112C695.09 109.25 694.423 107 693.09 105.25C691.84 103.417 690.09 101.875 687.84 100.625C685.59 99.375 683.007 98.2917 680.09 97.375C677.173 96.375 674.09 95.3333 670.84 94.25C663.923 91.9167 658.715 88.9583 655.215 85.375C651.715 81.7083 649.965 76.8333 649.965 70.75C649.965 65.6667 651.173 61.2917 653.59 57.625C656.007 53.9583 659.382 51.125 663.715 49.125C668.132 47.0417 673.215 46 678.965 46C684.798 46 689.882 47.0417 694.215 49.125C698.632 51.2083 702.09 54.125 704.59 57.875C707.173 61.5417 708.507 65.9583 708.59 71.125H692.59C692.507 68.9583 691.923 66.9583 690.84 65.125C689.757 63.2083 688.173 61.6667 686.09 60.5C684.09 59.25 681.632 58.625 678.715 58.625C676.215 58.5417 673.965 58.9583 671.965 59.875C670.048 60.7083 668.507 61.9583 667.34 63.625C666.257 65.2083 665.715 67.2083 665.715 69.625C665.715 71.9583 666.215 73.9167 667.215 75.5C668.298 77 669.84 78.2917 671.84 79.375C673.84 80.375 676.173 81.3333 678.84 82.25C681.507 83.1667 684.423 84.1667 687.59 85.25C691.923 86.6667 695.84 88.4167 699.34 90.5C702.923 92.5 705.757 95.125 707.84 98.375C709.923 101.625 710.965 105.833 710.965 111C710.965 115.5 709.798 119.708 707.465 123.625C705.132 127.458 701.715 130.583 697.215 133C692.715 135.333 687.09 136.5 680.34 136.5Z" fill="white"/>
</svg>
