<svg width="689" height="91" viewBox="0 0 689 91" fill="none" xmlns="http://www.w3.org/2000/svg">
<path d="M55.625 89V1.49999H68.125V89H55.625ZM7.97212e-07 89V1.49999H12.5V89H7.97212e-07ZM10.375 49.5V39.25H58.375V49.5H10.375ZM125.801 90.5C117.384 90.5 109.967 88.625 103.551 84.875C97.2174 81.0417 92.2174 75.75 88.5508 69C84.9674 62.1667 83.1758 54.25 83.1758 45.25C83.1758 36.3333 84.9674 28.5 88.5508 21.75C92.2174 14.9167 97.2174 9.58333 103.551 5.75C109.967 1.91667 117.384 -1.54972e-06 125.801 -1.54972e-06C134.384 -1.54972e-06 141.884 1.91667 148.301 5.75C154.717 9.58333 159.676 14.9167 163.176 21.75C166.759 28.5 168.551 36.3333 168.551 45.25C168.551 54.25 166.759 62.1667 163.176 69C159.676 75.75 154.717 81.0417 148.301 84.875C141.884 88.625 134.384 90.5 125.801 90.5ZM125.926 79.375C131.926 79.375 137.176 78 141.676 75.25C146.176 72.5 149.634 68.5833 152.051 63.5C154.551 58.4167 155.801 52.3333 155.801 45.25C155.801 38.1667 154.551 32.0833 152.051 27C149.634 21.9167 146.176 18.0417 141.676 15.375C137.176 12.625 131.926 11.25 125.926 11.25C119.926 11.25 114.676 12.625 110.176 15.375C105.676 18.0417 102.176 21.9167 99.6758 27C97.1758 32.0833 95.9258 38.1667 95.9258 45.25C95.9258 52.3333 97.1758 58.4167 99.6758 63.5C102.176 68.5833 105.676 72.5 110.176 75.25C114.676 78 119.926 79.375 125.926 79.375ZM183.594 89V1.49999H198.344L227.969 60.625L257.469 1.49999H272.344V89H259.844V23.375L232.719 76.75H223.094L196.094 23.5V89H183.594ZM290.527 89V1.49999H345.777V11.75H303.027V39.75H342.027V49.75H303.027V78.75H345.777V89H290.527ZM382.313 89V11.75H356.438V1.49999H420.813V11.75H394.813V89H382.313ZM433.472 89V1.49999H463.097C470.013 1.49999 475.68 2.66666 480.097 4.99999C484.513 7.33333 487.763 10.4583 489.847 14.375C492.013 18.2083 493.097 22.5833 493.097 27.5C493.097 32.1667 492.013 36.5 489.847 40.5C487.763 44.4167 484.472 47.5833 479.972 50C475.472 52.3333 469.722 53.5 462.722 53.5H445.972V89H433.472ZM479.472 89L460.597 50.125H474.347L493.972 89H479.472ZM445.972 44H462.222C468.388 44 472.93 42.5 475.847 39.5C478.763 36.4167 480.222 32.5 480.222 27.75C480.222 22.9167 478.805 19.0833 475.972 16.25C473.138 13.4167 468.555 12 462.222 12H445.972V44ZM509.277 89V1.49999H521.777V89H509.277ZM578.414 90.5C569.831 90.5 562.414 88.625 556.164 84.875C549.997 81.0417 545.206 75.75 541.789 69C538.456 62.1667 536.789 54.25 536.789 45.25C536.789 36.3333 538.456 28.4583 541.789 21.625C545.206 14.7917 549.997 9.5 556.164 5.75C562.414 1.91667 569.831 -1.54972e-06 578.414 -1.54972e-06C588.664 -1.54972e-06 596.956 2.45833 603.289 7.37499C609.706 12.2917 613.789 19.2083 615.539 28.125H601.789C600.539 22.9583 597.956 18.8333 594.039 15.75C590.206 12.6667 584.997 11.125 578.414 11.125C572.497 11.125 567.372 12.5 563.039 15.25C558.706 18 555.372 21.9167 553.039 27C550.706 32.0833 549.539 38.1667 549.539 45.25C549.539 52.3333 550.706 58.4583 553.039 63.625C555.372 68.7083 558.706 72.625 563.039 75.375C567.372 78.0417 572.497 79.375 578.414 79.375C584.997 79.375 590.206 77.9167 594.039 75C597.956 72 600.539 67.9583 601.789 62.875H615.539C613.789 71.5417 609.706 78.3333 603.289 83.25C596.956 88.0833 588.664 90.5 578.414 90.5ZM659.118 90.5C652.701 90.5 647.076 89.375 642.243 87.125C637.41 84.7917 633.66 81.5417 630.993 77.375C628.326 73.2083 626.993 68.3333 626.993 62.75H640.118C640.201 65.9167 640.951 68.8333 642.368 71.5C643.868 74.0833 645.993 76.1667 648.743 77.75C651.576 79.25 655.035 80 659.118 80C662.618 80 665.618 79.4167 668.118 78.25C670.702 77.0833 672.66 75.5 673.993 73.5C675.326 71.4167 675.993 69.0417 675.993 66.375C675.993 63.2917 675.285 60.75 673.868 58.75C672.452 56.75 670.535 55.125 668.118 53.875C665.785 52.5417 663.035 51.375 659.868 50.375C656.785 49.375 653.535 48.2917 650.118 47.125C643.201 44.875 638.035 41.9583 634.618 38.375C631.285 34.7917 629.618 30.125 629.618 24.375C629.618 19.4583 630.785 15.2083 633.118 11.625C635.451 7.95833 638.701 5.12499 642.868 3.125C647.118 1.04166 652.118 -1.54972e-06 657.868 -1.54972e-06C663.535 -1.54972e-06 668.493 1.04166 672.743 3.125C676.993 5.20833 680.326 8.08333 682.743 11.75C685.16 15.4167 686.368 19.7083 686.368 24.625H673.118C673.118 22.375 672.535 20.1667 671.368 18C670.201 15.8333 668.451 14.0833 666.118 12.75C663.785 11.3333 660.91 10.625 657.493 10.625C654.66 10.5417 652.118 11 649.868 12C647.618 13 645.868 14.4583 644.618 16.375C643.368 18.2917 642.743 20.5833 642.743 23.25C642.743 25.9167 643.285 28.0833 644.368 29.75C645.535 31.3333 647.201 32.7083 649.368 33.875C651.535 35.0417 654.035 36.125 656.868 37.125C659.785 38.0417 662.993 39.0833 666.493 40.25C670.827 41.6667 674.66 43.4167 677.993 45.5C681.41 47.5 684.076 50.125 685.993 53.375C687.993 56.5417 688.993 60.625 688.993 65.625C688.993 69.9583 687.868 74 685.618 77.75C683.368 81.5 680.035 84.5833 675.618 87C671.201 89.3333 665.701 90.5 659.118 90.5Z" fill="black"/>
</svg>
