<svg width="196" height="32" viewBox="0 0 196 32" fill="none" xmlns="http://www.w3.org/2000/svg">
<rect width="196" height="32" fill="white"/>
<path d="M60.3408 21V9.8H62.2608V21H60.3408ZM53.2688 21V9.8H55.1888V21H53.2688ZM54.9008 16.072V14.504H60.7088V16.072H54.9008ZM69.6384 21.192C68.5611 21.192 67.6064 20.952 66.7744 20.472C65.9531 19.9813 65.3078 19.304 64.8384 18.44C64.3691 17.5653 64.1344 16.552 64.1344 15.4C64.1344 14.2587 64.3691 13.256 64.8384 12.392C65.3078 11.5173 65.9531 10.8347 66.7744 10.344C67.6064 9.85333 68.5611 9.608 69.6384 9.608C70.7371 9.608 71.7024 9.85333 72.5344 10.344C73.3664 10.8347 74.0118 11.5173 74.4704 12.392C74.9291 13.256 75.1584 14.2587 75.1584 15.4C75.1584 16.552 74.9291 17.5653 74.4704 18.44C74.0118 19.304 73.3664 19.9813 72.5344 20.472C71.7024 20.952 70.7371 21.192 69.6384 21.192ZM69.6544 19.464C70.3691 19.464 70.9931 19.304 71.5264 18.984C72.0598 18.6533 72.4704 18.184 72.7584 17.576C73.0464 16.968 73.1904 16.2427 73.1904 15.4C73.1904 14.5573 73.0464 13.832 72.7584 13.224C72.4704 12.616 72.0598 12.152 71.5264 11.832C70.9931 11.5013 70.3691 11.336 69.6544 11.336C68.9398 11.336 68.3158 11.5013 67.7824 11.832C67.2491 12.152 66.8331 12.616 66.5344 13.224C66.2464 13.832 66.1024 14.5573 66.1024 15.4C66.1024 16.2427 66.2464 16.968 66.5344 17.576C66.8331 18.184 67.2491 18.6533 67.7824 18.984C68.3158 19.304 68.9398 19.464 69.6544 19.464ZM77.0344 21V9.8H79.3064L82.8904 17.032L86.4424 9.8H88.7304V21H86.8104V13.096L83.6424 19.432H82.1384L78.9544 13.112V21H77.0344ZM91.0032 21V9.8H98.2352V11.352H92.9232V14.568H97.7552V16.088H92.9232V19.448H98.2352V21H91.0032ZM102.861 21V11.352H99.5652V9.8H108.061V11.352H104.765V21H102.861ZM109.644 21V9.8H113.66C114.545 9.8 115.276 9.95467 115.852 10.264C116.438 10.5627 116.87 10.968 117.148 11.48C117.436 11.9813 117.58 12.552 117.58 13.192C117.58 13.7893 117.441 14.344 117.164 14.856C116.886 15.368 116.454 15.7787 115.868 16.088C115.281 16.3973 114.529 16.552 113.612 16.552H111.564V21H109.644ZM115.484 21L113.132 16.056H115.212L117.676 21H115.484ZM111.564 15.128H113.532C114.246 15.128 114.769 14.9573 115.1 14.616C115.441 14.264 115.612 13.8053 115.612 13.24C115.612 12.6853 115.446 12.2427 115.116 11.912C114.785 11.5707 114.257 11.4 113.532 11.4H111.564V15.128ZM119.566 21V9.8H121.486V21H119.566ZM128.714 21.192C127.604 21.192 126.644 20.952 125.834 20.472C125.034 19.9813 124.415 19.304 123.978 18.44C123.551 17.5653 123.338 16.5573 123.338 15.416C123.338 14.264 123.551 13.256 123.978 12.392C124.415 11.5173 125.034 10.8347 125.834 10.344C126.644 9.85333 127.604 9.608 128.714 9.608C130.047 9.608 131.135 9.93867 131.978 10.6C132.82 11.2507 133.354 12.1733 133.578 13.368H131.466C131.316 12.7387 131.012 12.2427 130.554 11.88C130.095 11.5173 129.476 11.336 128.698 11.336C127.994 11.336 127.386 11.5013 126.874 11.832C126.372 12.152 125.983 12.6213 125.706 13.24C125.439 13.848 125.306 14.5733 125.306 15.416C125.306 16.2587 125.439 16.984 125.706 17.592C125.983 18.1893 126.372 18.6533 126.874 18.984C127.386 19.304 127.994 19.464 128.698 19.464C129.476 19.464 130.095 19.2987 130.554 18.968C131.012 18.6267 131.316 18.1573 131.466 17.56H133.578C133.364 18.6907 132.831 19.5813 131.978 20.232C131.135 20.872 130.047 21.192 128.714 21.192ZM139.216 21.192C138.406 21.192 137.686 21.048 137.056 20.76C136.427 20.472 135.936 20.0613 135.584 19.528C135.232 18.9947 135.051 18.36 135.04 17.624H137.072C137.072 17.9973 137.158 18.3333 137.328 18.632C137.51 18.92 137.755 19.1493 138.064 19.32C138.384 19.4907 138.768 19.576 139.216 19.576C139.6 19.576 139.931 19.5173 140.208 19.4C140.496 19.272 140.715 19.096 140.864 18.872C141.024 18.6373 141.104 18.3653 141.104 18.056C141.104 17.704 141.019 17.416 140.848 17.192C140.688 16.9573 140.464 16.76 140.176 16.6C139.888 16.44 139.558 16.3013 139.184 16.184C138.811 16.056 138.416 15.9227 138 15.784C137.115 15.4853 136.448 15.1067 136 14.648C135.552 14.1787 135.328 13.5547 135.328 12.776C135.328 12.1253 135.483 11.5653 135.792 11.096C136.102 10.6267 136.534 10.264 137.088 10.008C137.654 9.74133 138.304 9.608 139.04 9.608C139.787 9.608 140.438 9.74133 140.992 10.008C141.558 10.2747 142 10.648 142.32 11.128C142.651 11.5973 142.822 12.1627 142.832 12.824H140.784C140.774 12.5467 140.699 12.2907 140.56 12.056C140.422 11.8107 140.219 11.6133 139.952 11.464C139.696 11.304 139.382 11.224 139.008 11.224C138.688 11.2133 138.4 11.2667 138.144 11.384C137.899 11.4907 137.702 11.6507 137.552 11.864C137.414 12.0667 137.344 12.3227 137.344 12.632C137.344 12.9307 137.408 13.1813 137.536 13.384C137.675 13.576 137.872 13.7413 138.128 13.88C138.384 14.008 138.683 14.1307 139.024 14.248C139.366 14.3653 139.739 14.4933 140.144 14.632C140.699 14.8133 141.2 15.0373 141.648 15.304C142.107 15.56 142.47 15.896 142.736 16.312C143.003 16.728 143.136 17.2667 143.136 17.928C143.136 18.504 142.987 19.0427 142.688 19.544C142.39 20.0347 141.952 20.4347 141.376 20.744C140.8 21.0427 140.08 21.192 139.216 21.192Z" fill="#111111"/>
</svg>
