<svg width="713" height="91" viewBox="0 0 713 91" fill="none" xmlns="http://www.w3.org/2000/svg">
<path d="M55.25 89V1.49999H70.25V89H55.25ZM2.90573e-07 89V1.49999H15V89H2.90573e-07ZM12.75 50.5V38.25H58.125V50.5H12.75ZM129.138 90.5C120.721 90.5 113.263 88.625 106.763 84.875C100.346 81.0417 95.3044 75.75 91.6377 69C87.971 62.1667 86.1377 54.25 86.1377 45.25C86.1377 36.3333 87.971 28.5 91.6377 21.75C95.3044 14.9167 100.346 9.58333 106.763 5.75C113.263 1.91667 120.721 -1.54972e-06 129.138 -1.54972e-06C137.721 -1.54972e-06 145.263 1.91667 151.763 5.75C158.263 9.58333 163.304 14.9167 166.888 21.75C170.471 28.5 172.263 36.3333 172.263 45.25C172.263 54.25 170.471 62.1667 166.888 69C163.304 75.75 158.263 81.0417 151.763 84.875C145.263 88.625 137.721 90.5 129.138 90.5ZM129.263 77C134.846 77 139.721 75.75 143.888 73.25C148.054 70.6667 151.263 67 153.513 62.25C155.763 57.5 156.888 51.8333 156.888 45.25C156.888 38.6667 155.763 33 153.513 28.25C151.263 23.5 148.054 19.875 143.888 17.375C139.721 14.7917 134.846 13.5 129.263 13.5C123.679 13.5 118.804 14.7917 114.638 17.375C110.471 19.875 107.221 23.5 104.888 28.25C102.638 33 101.513 38.6667 101.513 45.25C101.513 51.8333 102.638 57.5 104.888 62.25C107.221 67 110.471 70.6667 114.638 73.25C118.804 75.75 123.679 77 129.263 77ZM188.169 89V1.49999H205.919L233.919 58L261.669 1.49999H279.544V89H264.544V27.25L239.794 76.75H228.044L203.169 27.375V89H188.169ZM298.55 89V1.49999H355.05V13.625H313.55V38.75H351.3V50.625H313.55V76.875H355.05V89H298.55ZM392.44 89V13.625H366.69V1.49999H433.065V13.625H407.315V89H392.44ZM446.68 89V1.49999H478.055C484.971 1.49999 490.68 2.70833 495.18 5.125C499.763 7.45833 503.138 10.625 505.305 14.625C507.555 18.5417 508.68 23 508.68 28C508.68 32.6667 507.596 37 505.43 41C503.263 45 499.888 48.2083 495.305 50.625C490.721 53.0417 484.846 54.25 477.68 54.25H461.68V89H446.68ZM492.305 89L473.93 50.375H490.18L509.43 89H492.305ZM461.68 43.125H477.055C482.638 43.125 486.721 41.7917 489.305 39.125C491.971 36.375 493.305 32.7917 493.305 28.375C493.305 24.0417 492.013 20.5833 489.43 18C486.846 15.3333 482.721 14 477.055 14H461.68V43.125ZM525.444 89V1.49999H540.444V89H525.444ZM598.162 90.5C589.495 90.5 581.995 88.625 575.662 84.875C569.412 81.0417 564.579 75.75 561.162 69C557.829 62.1667 556.162 54.2917 556.162 45.375C556.162 36.375 557.829 28.5 561.162 21.75C564.579 14.9167 569.412 9.58333 575.662 5.75C581.995 1.91667 589.495 -1.54972e-06 598.162 -1.54972e-06C608.579 -1.54972e-06 617.079 2.58333 623.662 7.75C630.245 12.8333 634.412 20.0417 636.162 29.375H619.662C618.495 24.4583 616.12 20.5833 612.537 17.75C608.954 14.9167 604.12 13.5 598.037 13.5C592.537 13.5 587.787 14.7917 583.787 17.375C579.87 19.875 576.829 23.5417 574.662 28.375C572.579 33.125 571.537 38.7917 571.537 45.375C571.537 51.9583 572.579 57.625 574.662 62.375C576.829 67.0417 579.87 70.6667 583.787 73.25C587.787 75.75 592.537 77 598.037 77C604.12 77 608.954 75.7083 612.537 73.125C616.12 70.4583 618.495 66.7917 619.662 62.125H636.162C634.495 70.9583 630.329 77.9167 623.662 83C617.079 88 608.579 90.5 598.162 90.5ZM681.465 90.5C675.132 90.5 669.507 89.375 664.59 87.125C659.673 84.875 655.84 81.6667 653.09 77.5C650.34 73.3333 648.923 68.375 648.84 62.625H664.715C664.715 65.5417 665.382 68.1667 666.715 70.5C668.132 72.75 670.048 74.5417 672.465 75.875C674.965 77.2083 677.965 77.875 681.465 77.875C684.465 77.875 687.048 77.4167 689.215 76.5C691.465 75.5 693.173 74.125 694.34 72.375C695.59 70.5417 696.215 68.4167 696.215 66C696.215 63.25 695.548 61 694.215 59.25C692.965 57.4167 691.215 55.875 688.965 54.625C686.715 53.375 684.132 52.2917 681.215 51.375C678.298 50.375 675.215 49.3333 671.965 48.25C665.048 45.9167 659.84 42.9583 656.34 39.375C652.84 35.7083 651.09 30.8333 651.09 24.75C651.09 19.6667 652.298 15.2917 654.715 11.625C657.132 7.95833 660.507 5.12499 664.84 3.125C669.257 1.04166 674.34 -1.54972e-06 680.09 -1.54972e-06C685.923 -1.54972e-06 691.007 1.04166 695.34 3.125C699.757 5.20833 703.215 8.12499 705.715 11.875C708.298 15.5417 709.632 19.9583 709.715 25.125H693.715C693.632 22.9583 693.048 20.9583 691.965 19.125C690.882 17.2083 689.298 15.6667 687.215 14.5C685.215 13.25 682.757 12.625 679.84 12.625C677.34 12.5417 675.09 12.9583 673.09 13.875C671.173 14.7083 669.632 15.9583 668.465 17.625C667.382 19.2083 666.84 21.2083 666.84 23.625C666.84 25.9583 667.34 27.9167 668.34 29.5C669.423 31 670.965 32.2917 672.965 33.375C674.965 34.375 677.298 35.3333 679.965 36.25C682.632 37.1667 685.548 38.1667 688.715 39.25C693.048 40.6667 696.965 42.4167 700.465 44.5C704.048 46.5 706.882 49.125 708.965 52.375C711.048 55.625 712.09 59.8333 712.09 65C712.09 69.5 710.923 73.7083 708.59 77.625C706.257 81.4583 702.84 84.5833 698.34 87C693.84 89.3333 688.215 90.5 681.465 90.5Z" fill="black"/>
</svg>
