<svg width="752" height="106" viewBox="0 0 752 106" fill="none" xmlns="http://www.w3.org/2000/svg">
<rect y="40.6338" width="752" height="57.5933" fill="white"/>
<path d="M78.8033 96V8.49999H93.8033V96H78.8033ZM23.5533 96V8.49999H38.5533V96H23.5533ZM36.3033 57.5V45.25H81.6783V57.5H36.3033ZM151.441 97.5C143.024 97.5 135.566 95.625 129.066 91.875C122.649 88.0417 117.608 82.75 113.941 76C110.274 69.1667 108.441 61.25 108.441 52.25C108.441 43.3333 110.274 35.5 113.941 28.75C117.608 21.9167 122.649 16.5833 129.066 12.75C135.566 8.91667 143.024 7 151.441 7C160.024 7 167.566 8.91667 174.066 12.75C180.566 16.5833 185.608 21.9167 189.191 28.75C192.774 35.5 194.566 43.3333 194.566 52.25C194.566 61.25 192.774 69.1667 189.191 76C185.608 82.75 180.566 88.0417 174.066 91.875C167.566 95.625 160.024 97.5 151.441 97.5ZM151.566 84C157.149 84 162.024 82.75 166.191 80.25C170.358 77.6667 173.566 74 175.816 69.25C178.066 64.5 179.191 58.8333 179.191 52.25C179.191 45.6667 178.066 40 175.816 35.25C173.566 30.5 170.358 26.875 166.191 24.375C162.024 21.7917 157.149 20.5 151.566 20.5C145.983 20.5 141.108 21.7917 136.941 24.375C132.774 26.875 129.524 30.5 127.191 35.25C124.941 40 123.816 45.6667 123.816 52.25C123.816 58.8333 124.941 64.5 127.191 69.25C129.524 74 132.774 77.6667 136.941 80.25C141.108 82.75 145.983 84 151.566 84ZM209.222 96V8.49999H226.972L254.972 65L282.722 8.49999H300.597V96H285.597V34.25L260.847 83.75H249.097L224.222 34.375V96H209.222ZM318.353 96V8.49999H374.853V20.625H333.353V45.75H371.103V57.625H333.353V83.875H374.853V96H318.353ZM410.994 96V20.625H385.244V8.49999H451.619V20.625H425.869V96H410.994ZM463.983 96V8.49999H495.358C502.275 8.49999 507.983 9.70833 512.483 12.125C517.066 14.4583 520.441 17.625 522.608 21.625C524.858 25.5417 525.983 30 525.983 35C525.983 39.6667 524.9 44 522.733 48C520.566 52 517.191 55.2083 512.608 57.625C508.025 60.0417 502.15 61.25 494.983 61.25H478.983V96H463.983ZM509.608 96L491.233 57.375H507.483L526.733 96H509.608ZM478.983 50.125H494.358C499.941 50.125 504.025 48.7917 506.608 46.125C509.275 43.375 510.608 39.7917 510.608 35.375C510.608 31.0417 509.316 27.5833 506.733 25C504.15 22.3333 500.025 21 494.358 21H478.983V50.125ZM541.498 96V8.49999H556.498V96H541.498ZM612.965 97.5C604.299 97.5 596.799 95.625 590.465 91.875C584.215 88.0417 579.382 82.75 575.965 76C572.632 69.1667 570.965 61.2917 570.965 52.375C570.965 43.375 572.632 35.5 575.965 28.75C579.382 21.9167 584.215 16.5833 590.465 12.75C596.799 8.91667 604.299 7 612.965 7C623.382 7 631.882 9.58333 638.465 14.75C645.049 19.8333 649.215 27.0417 650.965 36.375H634.465C633.299 31.4583 630.924 27.5833 627.34 24.75C623.757 21.9167 618.924 20.5 612.84 20.5C607.34 20.5 602.59 21.7917 598.59 24.375C594.674 26.875 591.632 30.5417 589.465 35.375C587.382 40.125 586.34 45.7917 586.34 52.375C586.34 58.9583 587.382 64.625 589.465 69.375C591.632 74.0417 594.674 77.6667 598.59 80.25C602.59 82.75 607.34 84 612.84 84C618.924 84 623.757 82.7083 627.34 80.125C630.924 77.4583 633.299 73.7917 634.465 69.125H650.965C649.299 77.9583 645.132 84.9167 638.465 90C631.882 95 623.382 97.5 612.965 97.5ZM695.018 97.5C688.685 97.5 683.06 96.375 678.143 94.125C673.227 91.875 669.393 88.6667 666.643 84.5C663.893 80.3333 662.477 75.375 662.393 69.625H678.268C678.268 72.5417 678.935 75.1667 680.268 77.5C681.685 79.75 683.602 81.5417 686.018 82.875C688.518 84.2083 691.518 84.875 695.018 84.875C698.018 84.875 700.602 84.4167 702.768 83.5C705.018 82.5 706.727 81.125 707.893 79.375C709.143 77.5417 709.768 75.4167 709.768 73C709.768 70.25 709.102 68 707.768 66.25C706.518 64.4167 704.768 62.875 702.518 61.625C700.268 60.375 697.685 59.2917 694.768 58.375C691.852 57.375 688.768 56.3333 685.518 55.25C678.602 52.9167 673.393 49.9583 669.893 46.375C666.393 42.7083 664.643 37.8333 664.643 31.75C664.643 26.6667 665.852 22.2917 668.268 18.625C670.685 14.9583 674.06 12.125 678.393 10.125C682.81 8.04166 687.893 7 693.643 7C699.477 7 704.56 8.04166 708.893 10.125C713.31 12.2083 716.768 15.125 719.268 18.875C721.852 22.5417 723.185 26.9583 723.268 32.125H707.268C707.185 29.9583 706.602 27.9583 705.518 26.125C704.435 24.2083 702.852 22.6667 700.768 21.5C698.768 20.25 696.31 19.625 693.393 19.625C690.893 19.5417 688.643 19.9583 686.643 20.875C684.727 21.7083 683.185 22.9583 682.018 24.625C680.935 26.2083 680.393 28.2083 680.393 30.625C680.393 32.9583 680.893 34.9167 681.893 36.5C682.977 38 684.518 39.2917 686.518 40.375C688.518 41.375 690.852 42.3333 693.518 43.25C696.185 44.1667 699.102 45.1667 702.268 46.25C706.602 47.6667 710.518 49.4167 714.018 51.5C717.602 53.5 720.435 56.125 722.518 59.375C724.602 62.625 725.643 66.8333 725.643 72C725.643 76.5 724.477 80.7083 722.143 84.625C719.81 88.4583 716.393 91.5833 711.893 94C707.393 96.3333 701.768 97.5 695.018 97.5Z" fill="black"/>
</svg>
