<svg width="80" height="12" viewBox="0 0 80 12" fill="none" xmlns="http://www.w3.org/2000/svg">
<path d="M7.05649 11.6001V0.400097H9.21649V11.6001H7.05649ZM0.000484467 11.6001V0.400097H2.16048V11.6001H0.000484467ZM1.85648 6.7521V5.0081H7.42449V6.7521H1.85648ZM15.1824 11.7921C14.4144 11.7921 13.721 11.6161 13.1024 11.2641C12.4944 10.9014 12.009 10.4054 11.6464 9.7761C11.2944 9.1361 11.1184 8.40543 11.1184 7.5841C11.1184 6.74143 11.2944 6.00543 11.6464 5.3761C12.009 4.7361 12.4997 4.2401 13.1184 3.8881C13.737 3.52543 14.4304 3.3441 15.1984 3.3441C15.977 3.3441 16.6704 3.52543 17.2784 3.8881C17.897 4.2401 18.3824 4.7361 18.7344 5.3761C19.097 6.00543 19.2784 6.7361 19.2784 7.5681C19.2784 8.4001 19.097 9.1361 18.7344 9.7761C18.3824 10.4054 17.897 10.9014 17.2784 11.2641C16.6597 11.6161 15.961 11.7921 15.1824 11.7921ZM15.1824 9.9201C15.545 9.9201 15.865 9.83476 16.1424 9.6641C16.4304 9.49343 16.6544 9.2321 16.8144 8.8801C16.985 8.5281 17.0704 8.09076 17.0704 7.5681C17.0704 7.04543 16.985 6.61343 16.8144 6.2721C16.6544 5.9201 16.4304 5.65876 16.1424 5.4881C15.865 5.30676 15.5504 5.2161 15.1984 5.2161C14.857 5.2161 14.5424 5.30676 14.2544 5.4881C13.9664 5.65876 13.737 5.9201 13.5664 6.2721C13.4064 6.61343 13.3264 7.04543 13.3264 7.5681C13.3264 8.09076 13.4064 8.5281 13.5664 8.8801C13.737 9.2321 13.961 9.49343 14.2384 9.6641C14.5264 9.83476 14.841 9.9201 15.1824 9.9201ZM21.14 11.6001V3.5361H23.044L23.22 4.6081C23.476 4.2241 23.812 3.9201 24.228 3.6961C24.6547 3.46143 25.14 3.3441 25.684 3.3441C26.0893 3.3441 26.452 3.39743 26.772 3.5041C27.092 3.61076 27.3747 3.76543 27.62 3.9681C27.876 4.17076 28.084 4.42676 28.244 4.7361C28.5427 4.29876 28.932 3.95743 29.412 3.7121C29.892 3.46676 30.4147 3.3441 30.98 3.3441C31.684 3.3441 32.2707 3.4881 32.74 3.7761C33.2093 4.05343 33.5613 4.45876 33.796 4.9921C34.0413 5.52543 34.164 6.18143 34.164 6.9601V11.6001H32.02V7.1521C32.02 6.5121 31.892 6.02143 31.636 5.6801C31.3907 5.33876 31.0067 5.1681 30.484 5.1681C30.1427 5.1681 29.8387 5.25343 29.572 5.4241C29.3053 5.59476 29.0973 5.8401 28.948 6.1601C28.8093 6.4801 28.74 6.8641 28.74 7.3121V11.6001H26.58V7.1521C26.58 6.5121 26.452 6.02143 26.196 5.6801C25.94 5.33876 25.5453 5.1681 25.012 5.1681C24.6813 5.1681 24.3827 5.25343 24.116 5.4241C23.86 5.59476 23.6573 5.8401 23.508 6.1601C23.3693 6.4801 23.3 6.8641 23.3 7.3121V11.6001H21.14ZM40.0745 11.7921C39.2638 11.7921 38.5438 11.6214 37.9145 11.2801C37.2958 10.9281 36.8105 10.4428 36.4585 9.8241C36.1172 9.19476 35.9465 8.46943 35.9465 7.6481C35.9465 6.80543 36.1172 6.0641 36.4585 5.4241C36.8105 4.77343 37.2958 4.26676 37.9145 3.9041C38.5332 3.53076 39.2532 3.3441 40.0745 3.3441C40.8745 3.3441 41.5732 3.5201 42.1705 3.8721C42.7678 4.2241 43.2318 4.69876 43.5625 5.2961C43.8932 5.89343 44.0585 6.57076 44.0585 7.3281C44.0585 7.43476 44.0585 7.55743 44.0585 7.6961C44.0585 7.8241 44.0478 7.95743 44.0265 8.0961H37.4825V6.7841H41.8825C41.8505 6.26143 41.6638 5.85076 41.3225 5.5521C40.9918 5.25343 40.5758 5.1041 40.0745 5.1041C39.7118 5.1041 39.3758 5.18943 39.0665 5.3601C38.7572 5.5201 38.5118 5.77076 38.3305 6.1121C38.1598 6.45343 38.0745 6.88543 38.0745 7.4081V7.8721C38.0745 8.30943 38.1545 8.69343 38.3145 9.0241C38.4852 9.3441 38.7198 9.59476 39.0185 9.7761C39.3172 9.94676 39.6638 10.0321 40.0585 10.0321C40.4532 10.0321 40.7785 9.94676 41.0345 9.7761C41.3012 9.60543 41.4985 9.38676 41.6265 9.1201H43.8345C43.6852 9.62143 43.4345 10.0748 43.0825 10.4801C42.7305 10.8854 42.2985 11.2054 41.7865 11.4401C41.2745 11.6748 40.7038 11.7921 40.0745 11.7921ZM49.3501 11.6001C48.7848 11.6001 48.2888 11.5148 47.8621 11.3441C47.4461 11.1628 47.1208 10.8694 46.8861 10.4641C46.6514 10.0481 46.5341 9.48276 46.5341 8.7681V5.3441H45.1581V3.5361H46.5341L46.7741 1.3441H48.6941V3.5361H50.8221V5.3441H48.6941V8.8001C48.6941 9.16276 48.7741 9.41343 48.9341 9.5521C49.0941 9.69076 49.3661 9.7601 49.7501 9.7601H50.8061V11.6001H49.3501ZM52.64 11.6001V3.5361H54.56L54.768 5.0241C54.96 4.6721 55.2 4.37343 55.488 4.1281C55.7867 3.88276 56.1227 3.69076 56.496 3.5521C56.88 3.41343 57.3013 3.3441 57.76 3.3441V5.6321H57.024C56.704 5.6321 56.4053 5.66943 56.128 5.7441C55.8613 5.81876 55.6267 5.94143 55.424 6.1121C55.2213 6.2721 55.0667 6.4961 54.96 6.7841C54.8533 7.0721 54.8 7.43476 54.8 7.8721V11.6001H52.64ZM59.2349 11.6001V3.5361H61.3949V11.6001H59.2349ZM60.3229 2.4321C59.9389 2.4321 59.6189 2.3201 59.3629 2.0961C59.1175 1.86143 58.9949 1.5681 58.9949 1.2161C58.9949 0.864097 59.1175 0.576097 59.3629 0.352098C59.6189 0.117431 59.9389 9.72748e-05 60.3229 9.72748e-05C60.7175 9.72748e-05 61.0375 0.117431 61.2829 0.352098C61.5389 0.576097 61.6669 0.864097 61.6669 1.2161C61.6669 1.5681 61.5389 1.86143 61.2829 2.0961C61.0375 2.3201 60.7175 2.4321 60.3229 2.4321ZM67.4815 11.7921C66.6708 11.7921 65.9508 11.6108 65.3215 11.2481C64.6922 10.8854 64.2015 10.3894 63.8495 9.7601C63.4975 9.13076 63.3215 8.41076 63.3215 7.6001C63.3215 6.7681 63.4975 6.03743 63.8495 5.4081C64.2015 4.7681 64.6922 4.26676 65.3215 3.9041C65.9508 3.53076 66.6708 3.3441 67.4815 3.3441C68.5162 3.3441 69.3855 3.6161 70.0895 4.1601C70.7935 4.7041 71.2415 5.45076 71.4335 6.4001H69.1455C69.0495 6.02676 68.8468 5.73343 68.5375 5.5201C68.2388 5.30676 67.8815 5.2001 67.4655 5.2001C67.0922 5.2001 66.7562 5.2961 66.4575 5.4881C66.1695 5.66943 65.9402 5.94143 65.7695 6.3041C65.6095 6.6561 65.5295 7.07743 65.5295 7.5681C65.5295 7.94143 65.5775 8.27743 65.6735 8.5761C65.7695 8.8641 65.9028 9.11476 66.0735 9.3281C66.2442 9.53076 66.4468 9.68543 66.6815 9.7921C66.9268 9.89876 67.1882 9.9521 67.4655 9.9521C67.7428 9.9521 67.9935 9.9041 68.2175 9.8081C68.4522 9.7121 68.6495 9.57876 68.8095 9.4081C68.9695 9.22676 69.0815 9.0081 69.1455 8.7521H71.4335C71.2415 9.6801 70.7882 10.4214 70.0735 10.9761C69.3695 11.5201 68.5055 11.7921 67.4815 11.7921ZM76.5922 11.7921C75.8562 11.7921 75.2162 11.6748 74.6722 11.4401C74.1282 11.2054 73.7016 10.8801 73.3922 10.4641C73.0829 10.0481 72.9069 9.57876 72.8642 9.0561H75.0082C75.0616 9.25876 75.1522 9.44543 75.2802 9.6161C75.4082 9.7761 75.5789 9.9041 75.7922 10.0001C76.0056 10.0961 76.2616 10.1441 76.5602 10.1441C76.8482 10.1441 77.0829 10.1068 77.2642 10.0321C77.4456 9.94676 77.5789 9.83476 77.6642 9.6961C77.7602 9.55743 77.8082 9.41343 77.8082 9.2641C77.8082 9.0401 77.7442 8.86943 77.6162 8.7521C77.4882 8.6241 77.3016 8.52276 77.0562 8.4481C76.8109 8.37343 76.5122 8.29876 76.1602 8.2241C75.7762 8.14943 75.3976 8.05876 75.0242 7.9521C74.6616 7.83476 74.3362 7.69076 74.0482 7.5201C73.7602 7.34943 73.5309 7.13076 73.3602 6.8641C73.1896 6.59743 73.1042 6.26676 73.1042 5.8721C73.1042 5.3921 73.2322 4.96543 73.4882 4.5921C73.7442 4.2081 74.1176 3.9041 74.6082 3.6801C75.0989 3.4561 75.6909 3.3441 76.3842 3.3441C77.3549 3.3441 78.1229 3.56276 78.6882 4.0001C79.2536 4.43743 79.5896 5.0401 79.6962 5.8081H77.6642C77.6002 5.56276 77.4562 5.37076 77.2322 5.2321C77.0189 5.08276 76.7309 5.0081 76.3682 5.0081C75.9842 5.0081 75.6909 5.07743 75.4882 5.2161C75.2856 5.35476 75.1842 5.5361 75.1842 5.7601C75.1842 5.90943 75.2482 6.04276 75.3762 6.1601C75.5149 6.27743 75.7069 6.37876 75.9522 6.4641C76.1976 6.53876 76.4962 6.61343 76.8482 6.6881C77.4669 6.8161 78.0109 6.96543 78.4802 7.1361C78.9496 7.2961 79.3176 7.53076 79.5842 7.8401C79.8509 8.13876 79.9842 8.5761 79.9842 9.1521C79.9842 9.6641 79.8456 10.1228 79.5682 10.5281C79.2909 10.9228 78.8962 11.2321 78.3842 11.4561C77.8829 11.6801 77.2856 11.7921 76.5922 11.7921Z" fill="#111111"/>
</svg>
