<svg width="163" height="24" viewBox="0 0 163 24" fill="none" xmlns="http://www.w3.org/2000/svg">
<path d="M14.112 23.2002V0.800194H18.432V23.2002H14.112ZM-7.62939e-06 23.2002V0.800194H4.31999V23.2002H-7.62939e-06ZM3.71199 13.5042V10.0162H14.848V13.5042H3.71199ZM30.6837 23.5842C29.1477 23.5842 27.7611 23.2322 26.5237 22.5282C25.3077 21.8029 24.3371 20.8109 23.6117 19.5522C22.9077 18.2722 22.5557 16.8109 22.5557 15.1682C22.5557 13.4829 22.9077 12.0109 23.6117 10.7522C24.3371 9.47219 25.3184 8.48019 26.5557 7.77619C27.7931 7.05086 29.1797 6.68819 30.7157 6.68819C32.2731 6.68819 33.6597 7.05086 34.8757 7.77619C36.1131 8.48019 37.0837 9.47219 37.7877 10.7522C38.5131 12.0109 38.8757 13.4722 38.8757 15.1362C38.8757 16.8002 38.5131 18.2722 37.7877 19.5522C37.0837 20.8109 36.1131 21.8029 34.8757 22.5282C33.6384 23.2322 32.2411 23.5842 30.6837 23.5842ZM30.6837 19.8402C31.4091 19.8402 32.0491 19.6695 32.6037 19.3282C33.1797 18.9869 33.6277 18.4642 33.9477 17.7602C34.2891 17.0562 34.4597 16.1815 34.4597 15.1362C34.4597 14.0909 34.2891 13.2269 33.9477 12.5442C33.6277 11.8402 33.1797 11.3175 32.6037 10.9762C32.0491 10.6135 31.4197 10.4322 30.7157 10.4322C30.0331 10.4322 29.4037 10.6135 28.8277 10.9762C28.2517 11.3175 27.7931 11.8402 27.4517 12.5442C27.1317 13.2269 26.9717 14.0909 26.9717 15.1362C26.9717 16.1815 27.1317 17.0562 27.4517 17.7602C27.7931 18.4642 28.2411 18.9869 28.7957 19.3282C29.3717 19.6695 30.0011 19.8402 30.6837 19.8402ZM42.919 23.2002V7.0722H46.727L47.079 9.2162C47.591 8.44819 48.263 7.84019 49.095 7.39219C49.9483 6.92286 50.919 6.68819 52.007 6.68819C52.8177 6.68819 53.543 6.79486 54.183 7.00819C54.823 7.22153 55.3883 7.53086 55.879 7.93619C56.391 8.34153 56.807 8.85353 57.127 9.47219C57.7243 8.59753 58.503 7.91486 59.463 7.42419C60.423 6.93353 61.4683 6.68819 62.599 6.68819C64.007 6.68819 65.1803 6.97619 66.119 7.55219C67.0577 8.10686 67.7617 8.91753 68.231 9.98419C68.7217 11.0509 68.967 12.3629 68.967 13.9202V23.2002H64.679V14.3042C64.679 13.0242 64.423 12.0429 63.911 11.3602C63.4203 10.6775 62.6523 10.3362 61.607 10.3362C60.9243 10.3362 60.3163 10.5069 59.783 10.8482C59.2497 11.1895 58.8337 11.6802 58.535 12.3202C58.2577 12.9602 58.119 13.7282 58.119 14.6242V23.2002H53.799V14.3042C53.799 13.0242 53.543 12.0429 53.031 11.3602C52.519 10.6775 51.7297 10.3362 50.663 10.3362C50.0017 10.3362 49.4043 10.5069 48.871 10.8482C48.359 11.1895 47.9537 11.6802 47.655 12.3202C47.3777 12.9602 47.239 13.7282 47.239 14.6242V23.2002H42.919ZM81.108 23.5842C79.4867 23.5842 78.0467 23.2429 76.788 22.5602C75.5507 21.8562 74.58 20.8855 73.876 19.6482C73.1933 18.3895 72.852 16.9389 72.852 15.2962C72.852 13.6109 73.1933 12.1282 73.876 10.8482C74.58 9.54686 75.5507 8.53353 76.788 7.80819C78.0253 7.06153 79.4653 6.68819 81.108 6.68819C82.708 6.68819 84.1053 7.04019 85.3 7.74419C86.4947 8.44819 87.4227 9.39753 88.084 10.5922C88.7453 11.7869 89.076 13.1415 89.076 14.6562C89.076 14.8695 89.076 15.1149 89.076 15.3922C89.076 15.6482 89.0547 15.9149 89.012 16.1922H75.924V13.5682H84.724C84.66 12.5229 84.2867 11.7015 83.604 11.1042C82.9427 10.5069 82.1107 10.2082 81.108 10.2082C80.3827 10.2082 79.7107 10.3789 79.092 10.7202C78.4733 11.0402 77.9827 11.5415 77.62 12.2242C77.2787 12.9069 77.108 13.7709 77.108 14.8162V15.7442C77.108 16.6189 77.268 17.3869 77.588 18.0482C77.9293 18.6882 78.3987 19.1895 78.996 19.5522C79.5933 19.8935 80.2867 20.0642 81.076 20.0642C81.8653 20.0642 82.516 19.8935 83.028 19.5522C83.5613 19.2109 83.956 18.7735 84.212 18.2402H88.628C88.3293 19.2429 87.828 20.1495 87.124 20.9602C86.42 21.7709 85.556 22.4109 84.532 22.8802C83.508 23.3495 82.3667 23.5842 81.108 23.5842ZM99.9792 23.2002C98.8486 23.2002 97.8566 23.0295 97.0032 22.6882C96.1712 22.3255 95.5206 21.7389 95.0512 20.9282C94.5819 20.0962 94.3472 18.9655 94.3472 17.5362V10.6882H91.5952V7.0722H94.3472L94.8272 2.68819H98.6672V7.0722H102.923V10.6882H98.6672V17.6002C98.6672 18.3255 98.8272 18.8269 99.1472 19.1042C99.4672 19.3815 100.011 19.5202 100.779 19.5202H102.891V23.2002H99.9792ZM106.879 23.2002V7.0722H110.719L111.135 10.0482C111.519 9.34419 111.999 8.74686 112.575 8.2562C113.172 7.76553 113.844 7.38153 114.591 7.10419C115.359 6.82686 116.202 6.68819 117.119 6.68819V11.2642H115.647C115.007 11.2642 114.41 11.3389 113.855 11.4882C113.322 11.6375 112.852 11.8829 112.447 12.2242C112.042 12.5442 111.732 12.9922 111.519 13.5682C111.306 14.1442 111.199 14.8695 111.199 15.7442V23.2002H106.879ZM120.389 23.2002V7.0722H124.709V23.2002H120.389ZM122.565 4.86419C121.797 4.86419 121.157 4.64019 120.645 4.19219C120.154 3.72286 119.909 3.13619 119.909 2.43219C119.909 1.72819 120.154 1.15219 120.645 0.704195C121.157 0.234861 121.797 0.00019455 122.565 0.00019455C123.354 0.00019455 123.994 0.234861 124.485 0.704195C124.997 1.15219 125.253 1.72819 125.253 2.43219C125.253 3.13619 124.997 3.72286 124.485 4.19219C123.994 4.64019 123.354 4.86419 122.565 4.86419ZM137.202 23.5842C135.581 23.5842 134.141 23.2215 132.882 22.4962C131.623 21.7709 130.642 20.7789 129.938 19.5202C129.234 18.2615 128.882 16.8215 128.882 15.2002C128.882 13.5362 129.234 12.0749 129.938 10.8162C130.642 9.53619 131.623 8.53353 132.882 7.80819C134.141 7.06153 135.581 6.68819 137.202 6.68819C139.271 6.68819 141.01 7.23219 142.418 8.32019C143.826 9.40819 144.722 10.9015 145.106 12.8002H140.53C140.338 12.0535 139.933 11.4669 139.314 11.0402C138.717 10.6135 138.002 10.4002 137.17 10.4002C136.423 10.4002 135.751 10.5922 135.154 10.9762C134.578 11.3389 134.119 11.8829 133.778 12.6082C133.458 13.3122 133.298 14.1549 133.298 15.1362C133.298 15.8829 133.394 16.5549 133.586 17.1522C133.778 17.7282 134.045 18.2295 134.386 18.6562C134.727 19.0615 135.133 19.3709 135.602 19.5842C136.093 19.7975 136.615 19.9042 137.17 19.9042C137.725 19.9042 138.226 19.8082 138.674 19.6162C139.143 19.4242 139.538 19.1575 139.858 18.8162C140.178 18.4535 140.402 18.0162 140.53 17.5042H145.106C144.722 19.3602 143.815 20.8429 142.386 21.9522C140.978 23.0402 139.25 23.5842 137.202 23.5842ZM155.743 23.5842C154.271 23.5842 152.991 23.3495 151.903 22.8802C150.815 22.4109 149.962 21.7602 149.343 20.9282C148.725 20.0962 148.373 19.1575 148.287 18.1122H152.575C152.682 18.5175 152.863 18.8909 153.119 19.2322C153.375 19.5522 153.717 19.8082 154.143 20.0002C154.57 20.1922 155.082 20.2882 155.679 20.2882C156.255 20.2882 156.725 20.2135 157.087 20.0642C157.45 19.8935 157.717 19.6695 157.887 19.3922C158.079 19.1149 158.175 18.8269 158.175 18.5282C158.175 18.0802 158.047 17.7389 157.791 17.5042C157.535 17.2482 157.162 17.0455 156.671 16.8962C156.181 16.7469 155.583 16.5975 154.879 16.4482C154.111 16.2989 153.354 16.1175 152.607 15.9042C151.882 15.6695 151.231 15.3815 150.655 15.0402C150.079 14.6989 149.621 14.2615 149.279 13.7282C148.938 13.1949 148.767 12.5335 148.767 11.7442C148.767 10.7842 149.023 9.93086 149.535 9.18419C150.047 8.41619 150.794 7.80819 151.775 7.36019C152.757 6.91219 153.941 6.68819 155.327 6.68819C157.269 6.68819 158.805 7.12553 159.935 8.00019C161.066 8.87486 161.738 10.0802 161.951 11.6162H157.887C157.759 11.1255 157.471 10.7415 157.023 10.4642C156.597 10.1655 156.021 10.0162 155.295 10.0162C154.527 10.0162 153.941 10.1549 153.535 10.4322C153.13 10.7095 152.927 11.0722 152.927 11.5202C152.927 11.8189 153.055 12.0855 153.311 12.3202C153.589 12.5549 153.973 12.7575 154.463 12.9282C154.954 13.0775 155.551 13.2269 156.255 13.3762C157.493 13.6322 158.581 13.9309 159.519 14.2722C160.458 14.5922 161.194 15.0615 161.727 15.6802C162.261 16.2775 162.527 17.1522 162.527 18.3042C162.527 19.3282 162.25 20.2455 161.695 21.0562C161.141 21.8455 160.351 22.4642 159.327 22.9122C158.325 23.3602 157.13 23.5842 155.743 23.5842Z" fill="black"/>
</svg>
