<svg width="756" height="271" viewBox="0 0 756 271" fill="none" xmlns="http://www.w3.org/2000/svg">
<rect y="103.884" width="756" height="147.243" fill="white"/>
<path d="M78.125 178V90.5H93.125V178H78.125ZM22.875 178V90.5H37.875V178H22.875ZM35.625 139.5V127.25H81V139.5H35.625ZM150.763 179.5C142.346 179.5 134.888 177.625 128.388 173.875C121.971 170.042 116.929 164.75 113.263 158C109.596 151.167 107.763 143.25 107.763 134.25C107.763 125.333 109.596 117.5 113.263 110.75C116.929 103.917 121.971 98.5833 128.388 94.75C134.888 90.9167 142.346 89 150.763 89C159.346 89 166.888 90.9167 173.388 94.75C179.888 98.5833 184.929 103.917 188.513 110.75C192.096 117.5 193.888 125.333 193.888 134.25C193.888 143.25 192.096 151.167 188.513 158C184.929 164.75 179.888 170.042 173.388 173.875C166.888 177.625 159.346 179.5 150.763 179.5ZM150.888 166C156.471 166 161.346 164.75 165.513 162.25C169.679 159.667 172.888 156 175.138 151.25C177.388 146.5 178.513 140.833 178.513 134.25C178.513 127.667 177.388 122 175.138 117.25C172.888 112.5 169.679 108.875 165.513 106.375C161.346 103.792 156.471 102.5 150.888 102.5C145.304 102.5 140.429 103.792 136.263 106.375C132.096 108.875 128.846 112.5 126.513 117.25C124.263 122 123.138 127.667 123.138 134.25C123.138 140.833 124.263 146.5 126.513 151.25C128.846 156 132.096 159.667 136.263 162.25C140.429 164.75 145.304 166 150.888 166ZM208.544 178V90.5H226.294L254.294 147L282.044 90.5H299.919V178H284.919V116.25L260.169 165.75H248.419L223.544 116.375V178H208.544ZM317.675 178V90.5H374.175V102.625H332.675V127.75H370.425V139.625H332.675V165.875H374.175V178H317.675ZM410.315 178V102.625H384.565V90.5H450.94V102.625H425.19V178H410.315ZM463.305 178V90.5H494.68C501.596 90.5 507.305 91.7083 511.805 94.125C516.388 96.4583 519.763 99.625 521.93 103.625C524.18 107.542 525.305 112 525.305 117C525.305 121.667 524.221 126 522.055 130C519.888 134 516.513 137.208 511.93 139.625C507.346 142.042 501.471 143.25 494.305 143.25H478.305V178H463.305ZM508.93 178L490.555 139.375H506.805L526.055 178H508.93ZM478.305 132.125H493.68C499.263 132.125 503.346 130.792 505.93 128.125C508.596 125.375 509.93 121.792 509.93 117.375C509.93 113.042 508.638 109.583 506.055 107C503.471 104.333 499.346 103 493.68 103H478.305V132.125ZM540.819 178V90.5H555.819V178H540.819ZM612.287 179.5C603.62 179.5 596.12 177.625 589.787 173.875C583.537 170.042 578.704 164.75 575.287 158C571.954 151.167 570.287 143.292 570.287 134.375C570.287 125.375 571.954 117.5 575.287 110.75C578.704 103.917 583.537 98.5833 589.787 94.75C596.12 90.9167 603.62 89 612.287 89C622.704 89 631.204 91.5833 637.787 96.75C644.37 101.833 648.537 109.042 650.287 118.375H633.787C632.62 113.458 630.245 109.583 626.662 106.75C623.079 103.917 618.245 102.5 612.162 102.5C606.662 102.5 601.912 103.792 597.912 106.375C593.995 108.875 590.954 112.542 588.787 117.375C586.704 122.125 585.662 127.792 585.662 134.375C585.662 140.958 586.704 146.625 588.787 151.375C590.954 156.042 593.995 159.667 597.912 162.25C601.912 164.75 606.662 166 612.162 166C618.245 166 623.079 164.708 626.662 162.125C630.245 159.458 632.62 155.792 633.787 151.125H650.287C648.62 159.958 644.454 166.917 637.787 172C631.204 177 622.704 179.5 612.287 179.5ZM694.34 179.5C688.007 179.5 682.382 178.375 677.465 176.125C672.548 173.875 668.715 170.667 665.965 166.5C663.215 162.333 661.798 157.375 661.715 151.625H677.59C677.59 154.542 678.257 157.167 679.59 159.5C681.007 161.75 682.923 163.542 685.34 164.875C687.84 166.208 690.84 166.875 694.34 166.875C697.34 166.875 699.923 166.417 702.09 165.5C704.34 164.5 706.048 163.125 707.215 161.375C708.465 159.542 709.09 157.417 709.09 155C709.09 152.25 708.423 150 707.09 148.25C705.84 146.417 704.09 144.875 701.84 143.625C699.59 142.375 697.007 141.292 694.09 140.375C691.173 139.375 688.09 138.333 684.84 137.25C677.923 134.917 672.715 131.958 669.215 128.375C665.715 124.708 663.965 119.833 663.965 113.75C663.965 108.667 665.173 104.292 667.59 100.625C670.007 96.9583 673.382 94.125 677.715 92.125C682.132 90.0417 687.215 89 692.965 89C698.798 89 703.882 90.0417 708.215 92.125C712.632 94.2083 716.09 97.125 718.59 100.875C721.173 104.542 722.507 108.958 722.59 114.125H706.59C706.507 111.958 705.923 109.958 704.84 108.125C703.757 106.208 702.173 104.667 700.09 103.5C698.09 102.25 695.632 101.625 692.715 101.625C690.215 101.542 687.965 101.958 685.965 102.875C684.048 103.708 682.507 104.958 681.34 106.625C680.257 108.208 679.715 110.208 679.715 112.625C679.715 114.958 680.215 116.917 681.215 118.5C682.298 120 683.84 121.292 685.84 122.375C687.84 123.375 690.173 124.333 692.84 125.25C695.507 126.167 698.423 127.167 701.59 128.25C705.923 129.667 709.84 131.417 713.34 133.5C716.923 135.5 719.757 138.125 721.84 141.375C723.923 144.625 724.965 148.833 724.965 154C724.965 158.5 723.798 162.708 721.465 166.625C719.132 170.458 715.715 173.583 711.215 176C706.715 178.333 701.09 179.5 694.34 179.5Z" fill="black"/>
</svg>
