<svg width="752" height="185" viewBox="0 0 752 185" fill="none" xmlns="http://www.w3.org/2000/svg">
<rect y="70.917" width="752" height="100.517" fill="white"/>
<path d="M78.8033 135V47.5H93.8033V135H78.8033ZM23.5533 135V47.5H38.5533V135H23.5533ZM36.3033 96.5V84.25H81.6783V96.5H36.3033ZM151.441 136.5C143.024 136.5 135.566 134.625 129.066 130.875C122.649 127.042 117.608 121.75 113.941 115C110.274 108.167 108.441 100.25 108.441 91.25C108.441 82.3333 110.274 74.5 113.941 67.75C117.608 60.9167 122.649 55.5833 129.066 51.75C135.566 47.9167 143.024 46 151.441 46C160.024 46 167.566 47.9167 174.066 51.75C180.566 55.5833 185.608 60.9167 189.191 67.75C192.774 74.5 194.566 82.3333 194.566 91.25C194.566 100.25 192.774 108.167 189.191 115C185.608 121.75 180.566 127.042 174.066 130.875C167.566 134.625 160.024 136.5 151.441 136.5ZM151.566 123C157.149 123 162.024 121.75 166.191 119.25C170.358 116.667 173.566 113 175.816 108.25C178.066 103.5 179.191 97.8333 179.191 91.25C179.191 84.6667 178.066 79 175.816 74.25C173.566 69.5 170.358 65.875 166.191 63.375C162.024 60.7917 157.149 59.5 151.566 59.5C145.983 59.5 141.108 60.7917 136.941 63.375C132.774 65.875 129.524 69.5 127.191 74.25C124.941 79 123.816 84.6667 123.816 91.25C123.816 97.8333 124.941 103.5 127.191 108.25C129.524 113 132.774 116.667 136.941 119.25C141.108 121.75 145.983 123 151.566 123ZM209.222 135V47.5H226.972L254.972 104L282.722 47.5H300.597V135H285.597V73.25L260.847 122.75H249.097L224.222 73.375V135H209.222ZM318.353 135V47.5H374.853V59.625H333.353V84.75H371.103V96.625H333.353V122.875H374.853V135H318.353ZM410.994 135V59.625H385.244V47.5H451.619V59.625H425.869V135H410.994ZM463.983 135V47.5H495.358C502.275 47.5 507.983 48.7083 512.483 51.125C517.066 53.4583 520.441 56.625 522.608 60.625C524.858 64.5417 525.983 69 525.983 74C525.983 78.6667 524.9 83 522.733 87C520.566 91 517.191 94.2083 512.608 96.625C508.025 99.0417 502.15 100.25 494.983 100.25H478.983V135H463.983ZM509.608 135L491.233 96.375H507.483L526.733 135H509.608ZM478.983 89.125H494.358C499.941 89.125 504.025 87.7917 506.608 85.125C509.275 82.375 510.608 78.7917 510.608 74.375C510.608 70.0417 509.316 66.5833 506.733 64C504.15 61.3333 500.025 60 494.358 60H478.983V89.125ZM541.498 135V47.5H556.498V135H541.498ZM612.965 136.5C604.299 136.5 596.799 134.625 590.465 130.875C584.215 127.042 579.382 121.75 575.965 115C572.632 108.167 570.965 100.292 570.965 91.375C570.965 82.375 572.632 74.5 575.965 67.75C579.382 60.9167 584.215 55.5833 590.465 51.75C596.799 47.9167 604.299 46 612.965 46C623.382 46 631.882 48.5833 638.465 53.75C645.049 58.8333 649.215 66.0417 650.965 75.375H634.465C633.299 70.4583 630.924 66.5833 627.34 63.75C623.757 60.9167 618.924 59.5 612.84 59.5C607.34 59.5 602.59 60.7917 598.59 63.375C594.674 65.875 591.632 69.5417 589.465 74.375C587.382 79.125 586.34 84.7917 586.34 91.375C586.34 97.9583 587.382 103.625 589.465 108.375C591.632 113.042 594.674 116.667 598.59 119.25C602.59 121.75 607.34 123 612.84 123C618.924 123 623.757 121.708 627.34 119.125C630.924 116.458 633.299 112.792 634.465 108.125H650.965C649.299 116.958 645.132 123.917 638.465 129C631.882 134 623.382 136.5 612.965 136.5ZM695.018 136.5C688.685 136.5 683.06 135.375 678.143 133.125C673.227 130.875 669.393 127.667 666.643 123.5C663.893 119.333 662.477 114.375 662.393 108.625H678.268C678.268 111.542 678.935 114.167 680.268 116.5C681.685 118.75 683.602 120.542 686.018 121.875C688.518 123.208 691.518 123.875 695.018 123.875C698.018 123.875 700.602 123.417 702.768 122.5C705.018 121.5 706.727 120.125 707.893 118.375C709.143 116.542 709.768 114.417 709.768 112C709.768 109.25 709.102 107 707.768 105.25C706.518 103.417 704.768 101.875 702.518 100.625C700.268 99.375 697.685 98.2917 694.768 97.375C691.852 96.375 688.768 95.3333 685.518 94.25C678.602 91.9167 673.393 88.9583 669.893 85.375C666.393 81.7083 664.643 76.8333 664.643 70.75C664.643 65.6667 665.852 61.2917 668.268 57.625C670.685 53.9583 674.06 51.125 678.393 49.125C682.81 47.0417 687.893 46 693.643 46C699.477 46 704.56 47.0417 708.893 49.125C713.31 51.2083 716.768 54.125 719.268 57.875C721.852 61.5417 723.185 65.9583 723.268 71.125H707.268C707.185 68.9583 706.602 66.9583 705.518 65.125C704.435 63.2083 702.852 61.6667 700.768 60.5C698.768 59.25 696.31 58.625 693.393 58.625C690.893 58.5417 688.643 58.9583 686.643 59.875C684.727 60.7083 683.185 61.9583 682.018 63.625C680.935 65.2083 680.393 67.2083 680.393 69.625C680.393 71.9583 680.893 73.9167 681.893 75.5C682.977 77 684.518 78.2917 686.518 79.375C688.518 80.375 690.852 81.3333 693.518 82.25C696.185 83.1667 699.102 84.1667 702.268 85.25C706.602 86.6667 710.518 88.4167 714.018 90.5C717.602 92.5 720.435 95.125 722.518 98.375C724.602 101.625 725.643 105.833 725.643 111C725.643 115.5 724.477 119.708 722.143 123.625C719.81 127.458 716.393 130.583 711.893 133C707.393 135.333 701.768 136.5 695.018 136.5Z" fill="black"/>
</svg>
