<svg width="756" height="175" viewBox="0 0 756 175" fill="none" xmlns="http://www.w3.org/2000/svg">
<rect y="67.084" width="756" height="95.0833" fill="white"/>
<path d="M78.125 130V42.5H93.125V130H78.125ZM22.875 130V42.5H37.875V130H22.875ZM35.625 91.5V79.25H81V91.5H35.625ZM150.763 131.5C142.346 131.5 134.888 129.625 128.388 125.875C121.971 122.042 116.929 116.75 113.263 110C109.596 103.167 107.763 95.25 107.763 86.25C107.763 77.3333 109.596 69.5 113.263 62.75C116.929 55.9167 121.971 50.5833 128.388 46.75C134.888 42.9167 142.346 41 150.763 41C159.346 41 166.888 42.9167 173.388 46.75C179.888 50.5833 184.929 55.9167 188.513 62.75C192.096 69.5 193.888 77.3333 193.888 86.25C193.888 95.25 192.096 103.167 188.513 110C184.929 116.75 179.888 122.042 173.388 125.875C166.888 129.625 159.346 131.5 150.763 131.5ZM150.888 118C156.471 118 161.346 116.75 165.513 114.25C169.679 111.667 172.888 108 175.138 103.25C177.388 98.5 178.513 92.8333 178.513 86.25C178.513 79.6667 177.388 74 175.138 69.25C172.888 64.5 169.679 60.875 165.513 58.375C161.346 55.7917 156.471 54.5 150.888 54.5C145.304 54.5 140.429 55.7917 136.263 58.375C132.096 60.875 128.846 64.5 126.513 69.25C124.263 74 123.138 79.6667 123.138 86.25C123.138 92.8333 124.263 98.5 126.513 103.25C128.846 108 132.096 111.667 136.263 114.25C140.429 116.75 145.304 118 150.888 118ZM208.544 130V42.5H226.294L254.294 99L282.044 42.5H299.919V130H284.919V68.25L260.169 117.75H248.419L223.544 68.375V130H208.544ZM317.675 130V42.5H374.175V54.625H332.675V79.75H370.425V91.625H332.675V117.875H374.175V130H317.675ZM410.315 130V54.625H384.565V42.5H450.94V54.625H425.19V130H410.315ZM463.305 130V42.5H494.68C501.596 42.5 507.305 43.7083 511.805 46.125C516.388 48.4583 519.763 51.625 521.93 55.625C524.18 59.5417 525.305 64 525.305 69C525.305 73.6667 524.221 78 522.055 82C519.888 86 516.513 89.2083 511.93 91.625C507.346 94.0417 501.471 95.25 494.305 95.25H478.305V130H463.305ZM508.93 130L490.555 91.375H506.805L526.055 130H508.93ZM478.305 84.125H493.68C499.263 84.125 503.346 82.7917 505.93 80.125C508.596 77.375 509.93 73.7917 509.93 69.375C509.93 65.0417 508.638 61.5833 506.055 59C503.471 56.3333 499.346 55 493.68 55H478.305V84.125ZM540.819 130V42.5H555.819V130H540.819ZM612.287 131.5C603.62 131.5 596.12 129.625 589.787 125.875C583.537 122.042 578.704 116.75 575.287 110C571.954 103.167 570.287 95.2917 570.287 86.375C570.287 77.375 571.954 69.5 575.287 62.75C578.704 55.9167 583.537 50.5833 589.787 46.75C596.12 42.9167 603.62 41 612.287 41C622.704 41 631.204 43.5833 637.787 48.75C644.37 53.8333 648.537 61.0417 650.287 70.375H633.787C632.62 65.4583 630.245 61.5833 626.662 58.75C623.079 55.9167 618.245 54.5 612.162 54.5C606.662 54.5 601.912 55.7917 597.912 58.375C593.995 60.875 590.954 64.5417 588.787 69.375C586.704 74.125 585.662 79.7917 585.662 86.375C585.662 92.9583 586.704 98.625 588.787 103.375C590.954 108.042 593.995 111.667 597.912 114.25C601.912 116.75 606.662 118 612.162 118C618.245 118 623.079 116.708 626.662 114.125C630.245 111.458 632.62 107.792 633.787 103.125H650.287C648.62 111.958 644.454 118.917 637.787 124C631.204 129 622.704 131.5 612.287 131.5ZM694.34 131.5C688.007 131.5 682.382 130.375 677.465 128.125C672.548 125.875 668.715 122.667 665.965 118.5C663.215 114.333 661.798 109.375 661.715 103.625H677.59C677.59 106.542 678.257 109.167 679.59 111.5C681.007 113.75 682.923 115.542 685.34 116.875C687.84 118.208 690.84 118.875 694.34 118.875C697.34 118.875 699.923 118.417 702.09 117.5C704.34 116.5 706.048 115.125 707.215 113.375C708.465 111.542 709.09 109.417 709.09 107C709.09 104.25 708.423 102 707.09 100.25C705.84 98.4167 704.09 96.875 701.84 95.625C699.59 94.375 697.007 93.2917 694.09 92.375C691.173 91.375 688.09 90.3333 684.84 89.25C677.923 86.9167 672.715 83.9583 669.215 80.375C665.715 76.7083 663.965 71.8333 663.965 65.75C663.965 60.6667 665.173 56.2917 667.59 52.625C670.007 48.9583 673.382 46.125 677.715 44.125C682.132 42.0417 687.215 41 692.965 41C698.798 41 703.882 42.0417 708.215 44.125C712.632 46.2083 716.09 49.125 718.59 52.875C721.173 56.5417 722.507 60.9583 722.59 66.125H706.59C706.507 63.9583 705.923 61.9583 704.84 60.125C703.757 58.2083 702.173 56.6667 700.09 55.5C698.09 54.25 695.632 53.625 692.715 53.625C690.215 53.5417 687.965 53.9583 685.965 54.875C684.048 55.7083 682.507 56.9583 681.34 58.625C680.257 60.2083 679.715 62.2083 679.715 64.625C679.715 66.9583 680.215 68.9167 681.215 70.5C682.298 72 683.84 73.2917 685.84 74.375C687.84 75.375 690.173 76.3333 692.84 77.25C695.507 78.1667 698.423 79.1667 701.59 80.25C705.923 81.6667 709.84 83.4167 713.34 85.5C716.923 87.5 719.757 90.125 721.84 93.375C723.923 96.625 724.965 100.833 724.965 106C724.965 110.5 723.798 114.708 721.465 118.625C719.132 122.458 715.715 125.583 711.215 128C706.715 130.333 701.09 131.5 694.34 131.5Z" fill="black"/>
</svg>
