<svg width="102" height="15" viewBox="0 0 102 15" fill="none" xmlns="http://www.w3.org/2000/svg">
<path d="M8.81992 14.5V0.499999H11.5199V14.5H8.81992ZM-7.72476e-05 14.5V0.499999H2.69992V14.5H-7.72476e-05ZM2.31992 8.44V6.26H9.27992V8.44H2.31992ZM19.1773 14.74C18.2173 14.74 17.3506 14.52 16.5773 14.08C15.8173 13.6267 15.2106 13.0067 14.7573 12.22C14.3173 11.42 14.0973 10.5067 14.0973 9.48C14.0973 8.42667 14.3173 7.50667 14.7573 6.72C15.2106 5.92 15.8239 5.3 16.5973 4.86C17.3706 4.40667 18.2373 4.18 19.1973 4.18C20.1706 4.18 21.0373 4.40667 21.7973 4.86C22.5706 5.3 23.1773 5.92 23.6173 6.72C24.0706 7.50667 24.2973 8.42 24.2973 9.46C24.2973 10.5 24.0706 11.42 23.6173 12.22C23.1773 13.0067 22.5706 13.6267 21.7973 14.08C21.0239 14.52 20.1506 14.74 19.1773 14.74ZM19.1773 12.4C19.6306 12.4 20.0306 12.2933 20.3773 12.08C20.7373 11.8667 21.0173 11.54 21.2173 11.1C21.4306 10.66 21.5373 10.1133 21.5373 9.46C21.5373 8.80667 21.4306 8.26667 21.2173 7.84C21.0173 7.4 20.7373 7.07333 20.3773 6.86C20.0306 6.63333 19.6373 6.52 19.1973 6.52C18.7706 6.52 18.3773 6.63333 18.0173 6.86C17.6573 7.07333 17.3706 7.4 17.1573 7.84C16.9573 8.26667 16.8573 8.80667 16.8573 9.46C16.8573 10.1133 16.9573 10.66 17.1573 11.1C17.3706 11.54 17.6506 11.8667 17.9973 12.08C18.3573 12.2933 18.7506 12.4 19.1773 12.4ZM26.8243 14.5V4.42H29.2043L29.4243 5.76C29.7443 5.28 30.1643 4.9 30.6843 4.62C31.2176 4.32667 31.8243 4.18 32.5043 4.18C33.011 4.18 33.4643 4.24667 33.8643 4.38C34.2643 4.51333 34.6176 4.70667 34.9243 4.96C35.2443 5.21333 35.5043 5.53333 35.7043 5.92C36.0776 5.37333 36.5643 4.94667 37.1643 4.64C37.7643 4.33333 38.4176 4.18 39.1243 4.18C40.0043 4.18 40.7376 4.36 41.3243 4.72C41.911 5.06667 42.351 5.57333 42.6443 6.24C42.951 6.90667 43.1043 7.72667 43.1043 8.7V14.5H40.4243V8.94C40.4243 8.14 40.2643 7.52667 39.9443 7.1C39.6376 6.67333 39.1576 6.46 38.5043 6.46C38.0776 6.46 37.6976 6.56667 37.3643 6.78C37.031 6.99333 36.771 7.3 36.5843 7.7C36.411 8.1 36.3243 8.58 36.3243 9.14V14.5H33.6243V8.94C33.6243 8.14 33.4643 7.52667 33.1443 7.1C32.8243 6.67333 32.331 6.46 31.6643 6.46C31.251 6.46 30.8776 6.56667 30.5443 6.78C30.2243 6.99333 29.971 7.3 29.7843 7.7C29.611 8.1 29.5243 8.58 29.5243 9.14V14.5H26.8243ZM50.6924 14.74C49.6791 14.74 48.7791 14.5267 47.9924 14.1C47.2191 13.66 46.6124 13.0533 46.1724 12.28C45.7458 11.4933 45.5324 10.5867 45.5324 9.56C45.5324 8.50667 45.7458 7.58 46.1724 6.78C46.6124 5.96667 47.2191 5.33333 47.9924 4.88C48.7658 4.41333 49.6658 4.18 50.6924 4.18C51.6924 4.18 52.5658 4.4 53.3124 4.84C54.0591 5.28 54.6391 5.87333 55.0524 6.62C55.4658 7.36667 55.6724 8.21333 55.6724 9.16C55.6724 9.29333 55.6724 9.44667 55.6724 9.62C55.6724 9.78 55.6591 9.94667 55.6324 10.12H47.4524V8.48H52.9524C52.9124 7.82667 52.6791 7.31333 52.2524 6.94C51.8391 6.56667 51.3191 6.38 50.6924 6.38C50.2391 6.38 49.8191 6.48667 49.4324 6.7C49.0458 6.9 48.7391 7.21333 48.5124 7.64C48.2991 8.06667 48.1924 8.60667 48.1924 9.26V9.84C48.1924 10.3867 48.2924 10.8667 48.4924 11.28C48.7058 11.68 48.9991 11.9933 49.3724 12.22C49.7458 12.4333 50.1791 12.54 50.6724 12.54C51.1658 12.54 51.5724 12.4333 51.8924 12.22C52.2258 12.0067 52.4724 11.7333 52.6324 11.4H55.3924C55.2058 12.0267 54.8924 12.5933 54.4524 13.1C54.0124 13.6067 53.4724 14.0067 52.8324 14.3C52.1924 14.5933 51.4791 14.74 50.6924 14.74ZM62.487 14.5C61.7803 14.5 61.1603 14.3933 60.627 14.18C60.107 13.9533 59.7003 13.5867 59.407 13.08C59.1136 12.56 58.967 11.8533 58.967 10.96V6.68H57.247V4.42H58.967L59.267 1.68H61.667V4.42H64.327V6.68H61.667V11C61.667 11.4533 61.767 11.7667 61.967 11.94C62.167 12.1133 62.507 12.2 62.987 12.2H64.307V14.5H62.487ZM66.7993 14.5V4.42H69.1993L69.4593 6.28C69.6993 5.84 69.9993 5.46667 70.3593 5.16C70.7326 4.85333 71.1526 4.61333 71.6193 4.44C72.0993 4.26667 72.626 4.18 73.1993 4.18V7.04H72.2793C71.8793 7.04 71.506 7.08667 71.1593 7.18C70.826 7.27333 70.5326 7.42667 70.2793 7.64C70.026 7.84 69.8326 8.12 69.6993 8.48C69.566 8.84 69.4993 9.29333 69.4993 9.84V14.5H66.7993ZM75.2429 14.5V4.42H77.9429V14.5H75.2429ZM76.6029 3.04C76.1229 3.04 75.7229 2.9 75.4029 2.62C75.0962 2.32667 74.9429 1.96 74.9429 1.52C74.9429 1.08 75.0962 0.719999 75.4029 0.44C75.7229 0.146666 76.1229 -4.76837e-07 76.6029 -4.76837e-07C77.0962 -4.76837e-07 77.4962 0.146666 77.8029 0.44C78.1229 0.719999 78.2829 1.08 78.2829 1.52C78.2829 1.96 78.1229 2.32667 77.8029 2.62C77.4962 2.9 77.0962 3.04 76.6029 3.04ZM85.7512 14.74C84.7378 14.74 83.8378 14.5133 83.0512 14.06C82.2645 13.6067 81.6512 12.9867 81.2112 12.2C80.7712 11.4133 80.5512 10.5133 80.5512 9.5C80.5512 8.46 80.7712 7.54667 81.2112 6.76C81.6512 5.96 82.2645 5.33333 83.0512 4.88C83.8378 4.41333 84.7378 4.18 85.7512 4.18C87.0445 4.18 88.1312 4.52 89.0112 5.2C89.8912 5.88 90.4512 6.81333 90.6912 8H87.8312C87.7112 7.53333 87.4578 7.16667 87.0712 6.9C86.6978 6.63333 86.2512 6.5 85.7312 6.5C85.2645 6.5 84.8445 6.62 84.4712 6.86C84.1112 7.08667 83.8245 7.42667 83.6112 7.88C83.4112 8.32 83.3112 8.84667 83.3112 9.46C83.3112 9.92667 83.3712 10.3467 83.4912 10.72C83.6112 11.08 83.7778 11.3933 83.9912 11.66C84.2045 11.9133 84.4578 12.1067 84.7512 12.24C85.0578 12.3733 85.3845 12.44 85.7312 12.44C86.0778 12.44 86.3912 12.38 86.6712 12.26C86.9645 12.14 87.2112 11.9733 87.4112 11.76C87.6112 11.5333 87.7512 11.26 87.8312 10.94H90.6912C90.4512 12.1 89.8845 13.0267 88.9912 13.72C88.1112 14.4 87.0312 14.74 85.7512 14.74ZM97.3396 14.74C96.4196 14.74 95.6196 14.5933 94.9396 14.3C94.2596 14.0067 93.7263 13.6 93.3396 13.08C92.9529 12.56 92.7329 11.9733 92.6796 11.32H95.3596C95.4263 11.5733 95.5396 11.8067 95.6996 12.02C95.8596 12.22 96.0729 12.38 96.3396 12.5C96.6063 12.62 96.9263 12.68 97.2996 12.68C97.6596 12.68 97.9529 12.6333 98.1796 12.54C98.4063 12.4333 98.5729 12.2933 98.6796 12.12C98.7996 11.9467 98.8596 11.7667 98.8596 11.58C98.8596 11.3 98.7796 11.0867 98.6196 10.94C98.4596 10.78 98.2263 10.6533 97.9196 10.56C97.6129 10.4667 97.2396 10.3733 96.7996 10.28C96.3196 10.1867 95.8463 10.0733 95.3796 9.94C94.9263 9.79333 94.5196 9.61333 94.1596 9.4C93.7996 9.18667 93.5129 8.91333 93.2996 8.58C93.0863 8.24667 92.9796 7.83333 92.9796 7.34C92.9796 6.74 93.1396 6.20667 93.4596 5.74C93.7796 5.26 94.2463 4.88 94.8596 4.6C95.4729 4.32 96.2129 4.18 97.0796 4.18C98.2929 4.18 99.2529 4.45333 99.9596 5C100.666 5.54667 101.086 6.3 101.22 7.26H98.6796C98.5996 6.95333 98.4196 6.71333 98.1396 6.54C97.8729 6.35333 97.5129 6.26 97.0596 6.26C96.5796 6.26 96.2129 6.34667 95.9596 6.52C95.7063 6.69333 95.5796 6.92 95.5796 7.2C95.5796 7.38667 95.6596 7.55333 95.8196 7.7C95.9929 7.84667 96.2329 7.97333 96.5396 8.08C96.8463 8.17333 97.2196 8.26667 97.6596 8.36C98.4329 8.52 99.1129 8.70667 99.6996 8.92C100.286 9.12 100.746 9.41333 101.08 9.8C101.413 10.1733 101.58 10.72 101.58 11.44C101.58 12.08 101.406 12.6533 101.06 13.16C100.713 13.6533 100.22 14.04 99.5796 14.32C98.9529 14.6 98.2063 14.74 97.3396 14.74Z" fill="black"/>
</svg>
