<svg width="195" height="30" viewBox="0 0 195 30" fill="none" xmlns="http://www.w3.org/2000/svg">
<path d="M42.24 27V3.96H44.928V13.592C45.4613 12.632 46.208 11.8747 47.168 11.32C48.1493 10.7653 49.216 10.488 50.368 10.488C51.6053 10.488 52.6827 10.744 53.6 11.256C54.5173 11.7467 55.2213 12.504 55.712 13.528C56.2027 14.552 56.448 15.8427 56.448 17.4V27H53.792V17.688C53.792 16.0667 53.4507 14.8507 52.768 14.04C52.0853 13.208 51.0933 12.792 49.792 12.792C48.8747 12.792 48.0427 13.016 47.296 13.464C46.5707 13.912 45.9947 14.552 45.568 15.384C45.1413 16.216 44.928 17.24 44.928 18.456V27H42.24ZM68.1663 27.384C66.6729 27.384 65.3289 27.0427 64.1343 26.36C62.9396 25.656 62.0009 24.6747 61.3182 23.416C60.6356 22.136 60.2942 20.6533 60.2942 18.968C60.2942 17.24 60.6356 15.7467 61.3182 14.488C62.0222 13.208 62.9716 12.2267 64.1662 11.544C65.3822 10.84 66.7369 10.488 68.2303 10.488C69.7663 10.488 71.1209 10.84 72.2943 11.544C73.4889 12.2267 74.4276 13.208 75.1103 14.488C75.8143 15.7467 76.1663 17.2293 76.1663 18.936C76.1663 20.6427 75.8143 22.136 75.1103 23.416C74.4063 24.6747 73.4569 25.656 72.2622 26.36C71.0676 27.0427 69.7023 27.384 68.1663 27.384ZM68.1982 25.08C69.1156 25.08 69.9689 24.856 70.7583 24.408C71.5476 23.9387 72.1876 23.2453 72.6783 22.328C73.1689 21.4107 73.4143 20.28 73.4143 18.936C73.4143 17.5707 73.1689 16.44 72.6783 15.544C72.2089 14.6267 71.5796 13.944 70.7902 13.496C70.0223 13.0267 69.1689 12.792 68.2303 12.792C67.3343 12.792 66.4809 13.0267 65.6702 13.496C64.8809 13.944 64.2409 14.6267 63.7502 15.544C63.2809 16.44 63.0462 17.5707 63.0462 18.936C63.0462 20.28 63.2809 21.4107 63.7502 22.328C64.2409 23.2453 64.8702 23.9387 65.6382 24.408C66.4276 24.856 67.2809 25.08 68.1982 25.08ZM80.255 27V10.872H82.687L82.847 13.176C83.359 12.344 84.0417 11.6933 84.895 11.224C85.7697 10.7333 86.719 10.488 87.743 10.488C88.575 10.488 89.3217 10.6053 89.983 10.84C90.6657 11.0533 91.263 11.3947 91.775 11.864C92.287 12.312 92.703 12.888 93.023 13.592C93.5777 12.6107 94.335 11.8533 95.295 11.32C96.2763 10.7653 97.3217 10.488 98.431 10.488C99.6683 10.488 100.746 10.744 101.663 11.256C102.602 11.7467 103.316 12.504 103.807 13.528C104.319 14.5307 104.575 15.8107 104.575 17.368V27H101.919V17.656C101.919 16.0347 101.588 14.8187 100.927 14.008C100.266 13.1973 99.3377 12.792 98.143 12.792C97.311 12.792 96.5643 13.016 95.903 13.464C95.2417 13.8907 94.719 14.52 94.335 15.352C93.951 16.184 93.759 17.208 93.759 18.424V27H91.071V17.656C91.071 16.0347 90.7403 14.8187 90.079 14.008C89.4177 13.1973 88.479 12.792 87.263 12.792C86.4523 12.792 85.7163 13.016 85.055 13.464C84.415 13.8907 83.903 14.52 83.519 15.352C83.135 16.184 82.943 17.208 82.943 18.424V27H80.255ZM116.147 27.384C114.632 27.384 113.288 27.032 112.115 26.328C110.963 25.624 110.056 24.6427 109.395 23.384C108.734 22.104 108.403 20.6213 108.403 18.936C108.403 17.2293 108.723 15.7467 109.363 14.488C110.024 13.2293 110.942 12.248 112.115 11.544C113.31 10.84 114.675 10.488 116.211 10.488C117.79 10.488 119.123 10.84 120.211 11.544C121.32 12.248 122.163 13.176 122.739 14.328C123.336 15.4587 123.635 16.7067 123.635 18.072C123.635 18.2853 123.635 18.5093 123.635 18.744C123.635 18.9787 123.624 19.2453 123.603 19.544H110.419V17.464H121.011C120.947 15.992 120.456 14.84 119.539 14.008C118.643 13.176 117.512 12.76 116.147 12.76C115.23 12.76 114.376 12.9733 113.587 13.4C112.819 13.8053 112.2 14.4133 111.731 15.224C111.262 16.0133 111.027 17.0053 111.027 18.2V19.096C111.027 20.4187 111.262 21.528 111.731 22.424C112.222 23.32 112.851 23.992 113.619 24.44C114.408 24.888 115.251 25.112 116.147 25.112C117.278 25.112 118.206 24.8667 118.931 24.376C119.678 23.864 120.211 23.1813 120.531 22.328H123.187C122.931 23.288 122.483 24.152 121.843 24.92C121.203 25.688 120.403 26.296 119.443 26.744C118.504 27.1707 117.406 27.384 116.147 27.384ZM133.387 27C132.427 27 131.595 26.8507 130.891 26.552C130.187 26.2533 129.643 25.752 129.259 25.048C128.897 24.3227 128.715 23.352 128.715 22.136V13.144H125.899V10.872H128.715L129.067 6.968H131.403V10.872H136.075V13.144H131.403V22.136C131.403 23.1387 131.606 23.8213 132.011 24.184C132.417 24.5253 133.131 24.696 134.155 24.696H135.883V27H133.387ZM139.902 27V10.872H142.334L142.526 13.944C142.889 13.2187 143.348 12.6 143.902 12.088C144.478 11.576 145.161 11.1813 145.95 10.904C146.761 10.6267 147.678 10.488 148.702 10.488V13.304H147.71C147.028 13.304 146.377 13.4 145.758 13.592C145.14 13.7627 144.585 14.0507 144.094 14.456C143.625 14.8613 143.252 15.416 142.974 16.12C142.718 16.8027 142.59 17.656 142.59 18.68V27H139.902ZM152.322 27V10.872H155.01V27H152.322ZM153.666 7.448C153.133 7.448 152.685 7.27733 152.322 6.936C151.981 6.57333 151.81 6.12533 151.81 5.592C151.81 5.05867 151.981 4.632 152.322 4.312C152.685 3.97067 153.133 3.8 153.666 3.8C154.178 3.8 154.616 3.97067 154.978 4.312C155.341 4.632 155.522 5.05867 155.522 5.592C155.522 6.12533 155.341 6.57333 154.978 6.936C154.616 7.27733 154.178 7.448 153.666 7.448ZM167.338 27.384C165.823 27.384 164.458 27.032 163.242 26.328C162.047 25.624 161.108 24.6427 160.426 23.384C159.743 22.104 159.402 20.632 159.402 18.968C159.402 17.2613 159.743 15.7787 160.426 14.52C161.108 13.2613 162.047 12.28 163.242 11.576C164.458 10.8507 165.823 10.488 167.338 10.488C169.258 10.488 170.858 10.9893 172.138 11.992C173.418 12.9733 174.228 14.296 174.57 15.96H171.818C171.604 14.9573 171.082 14.1787 170.25 13.624C169.418 13.0693 168.436 12.792 167.306 12.792C166.388 12.792 165.535 13.0267 164.746 13.496C163.956 13.944 163.327 14.6267 162.858 15.544C162.388 16.4613 162.154 17.592 162.154 18.936C162.154 19.9387 162.292 20.8347 162.57 21.624C162.847 22.392 163.22 23.032 163.69 23.544C164.159 24.056 164.703 24.4507 165.322 24.728C165.962 24.984 166.623 25.112 167.306 25.112C168.074 25.112 168.767 24.9947 169.386 24.76C170.004 24.504 170.527 24.1307 170.954 23.64C171.38 23.1493 171.668 22.5733 171.818 21.912H174.57C174.228 23.5333 173.407 24.856 172.106 25.88C170.826 26.8827 169.236 27.384 167.338 27.384ZM184.786 27.384C183.442 27.384 182.269 27.16 181.266 26.712C180.285 26.264 179.496 25.6453 178.898 24.856C178.322 24.0453 177.97 23.096 177.842 22.008H180.594C180.701 22.5627 180.925 23.0747 181.266 23.544C181.608 24.0133 182.066 24.3973 182.642 24.696C183.24 24.9733 183.965 25.112 184.818 25.112C185.565 25.112 186.184 25.0053 186.674 24.792C187.165 24.5573 187.528 24.248 187.762 23.864C188.018 23.48 188.146 23.064 188.146 22.616C188.146 21.9547 187.986 21.4533 187.666 21.112C187.368 20.7707 186.92 20.504 186.322 20.312C185.725 20.0987 185 19.9173 184.146 19.768C183.442 19.64 182.749 19.4693 182.066 19.256C181.384 19.0427 180.776 18.7653 180.242 18.424C179.709 18.0613 179.282 17.624 178.962 17.112C178.664 16.6 178.514 15.9707 178.514 15.224C178.514 14.3067 178.749 13.496 179.218 12.792C179.688 12.0667 180.36 11.5013 181.234 11.096C182.13 10.6907 183.165 10.488 184.338 10.488C186.066 10.488 187.464 10.904 188.53 11.736C189.597 12.568 190.226 13.7733 190.418 15.352H187.762C187.656 14.5413 187.304 13.912 186.706 13.464C186.13 12.9947 185.33 12.76 184.306 12.76C183.304 12.76 182.536 12.9627 182.002 13.368C181.49 13.7733 181.234 14.3067 181.234 14.968C181.234 15.3947 181.373 15.7787 181.65 16.12C181.949 16.44 182.376 16.7173 182.93 16.952C183.506 17.1867 184.21 17.3787 185.042 17.528C186.109 17.72 187.08 17.976 187.954 18.296C188.829 18.616 189.533 19.096 190.066 19.736C190.621 20.3547 190.898 21.24 190.898 22.392C190.898 23.3947 190.642 24.2693 190.13 25.016C189.64 25.7627 188.936 26.3493 188.018 26.776C187.101 27.1813 186.024 27.384 184.786 27.384Z" fill="black"/>
<path fill-rule="evenodd" clip-rule="evenodd" d="M18.1924 2.25977C17.5288 1.8205 16.6717 1.8205 16.0081 2.25977L5.02907 9.52223L5.02805 9.52286C4.4749 9.89157 4.14465 10.5068 4.14465 11.1608V12.7722C5.42359 13.1802 6.34945 14.3735 6.34945 15.7821C6.34945 17.5273 4.92808 18.9421 3.17479 18.9421C1.42137 18.9421 0 17.5273 0 15.7821C0 14.3733 0.926119 13.1799 2.20532 12.7721V11.1608C2.20532 9.85654 2.86353 8.64139 3.95121 7.91756L3.95351 7.91603L14.9342 0.65244L14.9344 0.652186C16.2485 -0.21748 17.9521 -0.217353 19.2662 0.652313L30.2509 7.92022C31.3429 8.6405 32 9.85819 32 11.1657V26.1067C32 28.2599 30.2448 30 28.0886 30H6.11675C3.95351 30 2.20532 28.2529 2.20532 26.1067C2.20532 25.0036 2.62305 23.9357 3.38608 23.125L3.38723 23.1238L8.60629 17.5451C9.67726 16.4014 11.5106 16.4375 12.5306 17.6312L12.5316 17.6324L16.0541 21.7384L16.0545 21.7389C16.3523 22.0842 16.8949 22.0541 17.1521 21.6798L17.1524 21.6794L21.7104 15.0191C21.2708 14.4767 21.0076 13.7869 21.0076 13.0358C21.0076 11.2906 22.429 9.87583 24.1822 9.87583C25.9357 9.87583 27.357 11.2906 27.357 13.0358C27.357 14.7811 25.9357 16.1959 24.1822 16.1959C23.8872 16.1959 23.6014 16.1558 23.3303 16.0808L18.7544 22.7671L18.7538 22.7683C17.7749 24.1946 15.7077 24.3024 14.5816 22.9947L11.0553 18.884L11.0537 18.8822C10.7881 18.5711 10.3084 18.5585 10.025 18.8611L4.80427 24.4416L4.80197 24.444C4.37914 24.8931 4.14465 25.4879 4.14465 26.1067C4.14465 27.1889 5.02677 28.0697 6.11675 28.0697H28.0886C29.1759 28.0697 30.0608 27.1917 30.0608 26.1067V11.1657C30.0608 10.5047 29.729 9.89169 29.1797 9.52933L18.1924 2.25977ZM23.5265 14.0782C23.7166 14.1969 23.9414 14.2655 24.1822 14.2655C24.8647 14.2655 25.4177 13.715 25.4177 13.0358C25.4177 12.3566 24.8647 11.8062 24.1822 11.8062C23.4999 11.8062 22.9469 12.3566 22.9469 13.0358C22.9469 13.4609 23.1634 13.8355 23.4928 14.0564C23.5041 14.0634 23.5154 14.0707 23.5265 14.0782ZM3.17479 14.5524C2.49247 14.5524 1.93933 15.1028 1.93933 15.7821C1.93933 16.4613 2.49247 17.0117 3.17479 17.0117C3.85711 17.0117 4.41025 16.4613 4.41025 15.7821C4.41025 15.1028 3.85711 14.5524 3.17479 14.5524Z" fill="#052EAD"/>
</svg>
