<svg width="100" height="15" viewBox="0 0 100 15" fill="none" xmlns="http://www.w3.org/2000/svg">
<path d="M8.82012 14.5V0.499999H11.5201V14.5H8.82012ZM0.000117302 14.5V0.499999H2.70012V14.5H0.000117302ZM2.32012 8.44V6.26H9.28012V8.44H2.32012ZM18.9775 14.74C18.0175 14.74 17.1508 14.52 16.3775 14.08C15.6175 13.6267 15.0108 13.0067 14.5575 12.22C14.1175 11.42 13.8975 10.5067 13.8975 9.48C13.8975 8.42667 14.1175 7.50667 14.5575 6.72C15.0108 5.92 15.6241 5.3 16.3975 4.86C17.1708 4.40667 18.0375 4.18 18.9975 4.18C19.9708 4.18 20.8375 4.40667 21.5975 4.86C22.3708 5.3 22.9775 5.92 23.4175 6.72C23.8708 7.50667 24.0975 8.42 24.0975 9.46C24.0975 10.5 23.8708 11.42 23.4175 12.22C22.9775 13.0067 22.3708 13.6267 21.5975 14.08C20.8241 14.52 19.9508 14.74 18.9775 14.74ZM18.9775 12.4C19.4308 12.4 19.8308 12.2933 20.1775 12.08C20.5375 11.8667 20.8175 11.54 21.0175 11.1C21.2308 10.66 21.3375 10.1133 21.3375 9.46C21.3375 8.80667 21.2308 8.26667 21.0175 7.84C20.8175 7.4 20.5375 7.07333 20.1775 6.86C19.8308 6.63333 19.4375 6.52 18.9975 6.52C18.5708 6.52 18.1775 6.63333 17.8175 6.86C17.4575 7.07333 17.1708 7.4 16.9575 7.84C16.7575 8.26667 16.6575 8.80667 16.6575 9.46C16.6575 10.1133 16.7575 10.66 16.9575 11.1C17.1708 11.54 17.4508 11.8667 17.7975 12.08C18.1575 12.2933 18.5508 12.4 18.9775 12.4ZM26.4245 14.5V4.42H28.8045L29.0245 5.76C29.3445 5.28 29.7645 4.9 30.2845 4.62C30.8178 4.32667 31.4245 4.18 32.1045 4.18C32.6112 4.18 33.0645 4.24667 33.4645 4.38C33.8645 4.51333 34.2178 4.70667 34.5245 4.96C34.8445 5.21333 35.1045 5.53333 35.3045 5.92C35.6778 5.37333 36.1645 4.94667 36.7645 4.64C37.3645 4.33333 38.0178 4.18 38.7245 4.18C39.6045 4.18 40.3378 4.36 40.9245 4.72C41.5112 5.06667 41.9512 5.57333 42.2445 6.24C42.5512 6.90667 42.7045 7.72667 42.7045 8.7V14.5H40.0245V8.94C40.0245 8.14 39.8645 7.52667 39.5445 7.1C39.2378 6.67333 38.7578 6.46 38.1045 6.46C37.6778 6.46 37.2978 6.56667 36.9645 6.78C36.6312 6.99333 36.3712 7.3 36.1845 7.7C36.0112 8.1 35.9245 8.58 35.9245 9.14V14.5H33.2245V8.94C33.2245 8.14 33.0645 7.52667 32.7445 7.1C32.4245 6.67333 31.9312 6.46 31.2645 6.46C30.8512 6.46 30.4778 6.56667 30.1445 6.78C29.8245 6.99333 29.5712 7.3 29.3845 7.7C29.2112 8.1 29.1245 8.58 29.1245 9.14V14.5H26.4245ZM50.0926 14.74C49.0793 14.74 48.1793 14.5267 47.3926 14.1C46.6193 13.66 46.0126 13.0533 45.5726 12.28C45.146 11.4933 44.9326 10.5867 44.9326 9.56C44.9326 8.50667 45.146 7.58 45.5726 6.78C46.0126 5.96667 46.6193 5.33333 47.3926 4.88C48.166 4.41333 49.066 4.18 50.0926 4.18C51.0926 4.18 51.966 4.4 52.7126 4.84C53.4593 5.28 54.0393 5.87333 54.4526 6.62C54.866 7.36667 55.0726 8.21333 55.0726 9.16C55.0726 9.29333 55.0726 9.44667 55.0726 9.62C55.0726 9.78 55.0593 9.94667 55.0326 10.12H46.8526V8.48H52.3526C52.3126 7.82667 52.0793 7.31333 51.6526 6.94C51.2393 6.56667 50.7193 6.38 50.0926 6.38C49.6393 6.38 49.2193 6.48667 48.8326 6.7C48.446 6.9 48.1393 7.21333 47.9126 7.64C47.6993 8.06667 47.5926 8.60667 47.5926 9.26V9.84C47.5926 10.3867 47.6926 10.8667 47.8926 11.28C48.106 11.68 48.3993 11.9933 48.7726 12.22C49.146 12.4333 49.5793 12.54 50.0726 12.54C50.566 12.54 50.9726 12.4333 51.2926 12.22C51.626 12.0067 51.8726 11.7333 52.0326 11.4H54.7926C54.606 12.0267 54.2926 12.5933 53.8526 13.1C53.4126 13.6067 52.8726 14.0067 52.2326 14.3C51.5926 14.5933 50.8793 14.74 50.0926 14.74ZM61.6871 14.5C60.9805 14.5 60.3605 14.3933 59.8271 14.18C59.3071 13.9533 58.9005 13.5867 58.6071 13.08C58.3138 12.56 58.1671 11.8533 58.1671 10.96V6.68H56.4471V4.42H58.1671L58.4671 1.68H60.8671V4.42H63.5271V6.68H60.8671V11C60.8671 11.4533 60.9671 11.7667 61.1671 11.94C61.3671 12.1133 61.7071 12.2 62.1871 12.2H63.5071V14.5H61.6871ZM65.7995 14.5V4.42H68.1995L68.4595 6.28C68.6995 5.84 68.9995 5.46667 69.3595 5.16C69.7328 4.85333 70.1528 4.61333 70.6195 4.44C71.0995 4.26667 71.6262 4.18 72.1995 4.18V7.04H71.2795C70.8795 7.04 70.5062 7.08667 70.1595 7.18C69.8262 7.27333 69.5328 7.42667 69.2795 7.64C69.0262 7.84 68.8328 8.12 68.6995 8.48C68.5662 8.84 68.4995 9.29333 68.4995 9.84V14.5H65.7995ZM74.0431 14.5V4.42H76.7431V14.5H74.0431ZM75.4031 3.04C74.9231 3.04 74.5231 2.9 74.2031 2.62C73.8964 2.32667 73.7431 1.96 73.7431 1.52C73.7431 1.08 73.8964 0.719999 74.2031 0.44C74.5231 0.146666 74.9231 -4.76837e-07 75.4031 -4.76837e-07C75.8964 -4.76837e-07 76.2964 0.146666 76.6031 0.44C76.9231 0.719999 77.0831 1.08 77.0831 1.52C77.0831 1.96 76.9231 2.32667 76.6031 2.62C76.2964 2.9 75.8964 3.04 75.4031 3.04ZM84.3514 14.74C83.338 14.74 82.438 14.5133 81.6514 14.06C80.8647 13.6067 80.2514 12.9867 79.8114 12.2C79.3714 11.4133 79.1514 10.5133 79.1514 9.5C79.1514 8.46 79.3714 7.54667 79.8114 6.76C80.2514 5.96 80.8647 5.33333 81.6514 4.88C82.438 4.41333 83.338 4.18 84.3514 4.18C85.6447 4.18 86.7314 4.52 87.6114 5.2C88.4914 5.88 89.0514 6.81333 89.2914 8H86.4314C86.3114 7.53333 86.058 7.16667 85.6714 6.9C85.298 6.63333 84.8514 6.5 84.3314 6.5C83.8647 6.5 83.4447 6.62 83.0714 6.86C82.7114 7.08667 82.4247 7.42667 82.2114 7.88C82.0114 8.32 81.9114 8.84667 81.9114 9.46C81.9114 9.92667 81.9714 10.3467 82.0914 10.72C82.2114 11.08 82.378 11.3933 82.5914 11.66C82.8047 11.9133 83.058 12.1067 83.3514 12.24C83.658 12.3733 83.9847 12.44 84.3314 12.44C84.678 12.44 84.9914 12.38 85.2714 12.26C85.5647 12.14 85.8114 11.9733 86.0114 11.76C86.2114 11.5333 86.3514 11.26 86.4314 10.94H89.2914C89.0514 12.1 88.4847 13.0267 87.5914 13.72C86.7114 14.4 85.6314 14.74 84.3514 14.74ZM95.7398 14.74C94.8198 14.74 94.0198 14.5933 93.3398 14.3C92.6598 14.0067 92.1265 13.6 91.7398 13.08C91.3531 12.56 91.1331 11.9733 91.0798 11.32H93.7598C93.8265 11.5733 93.9398 11.8067 94.0998 12.02C94.2598 12.22 94.4731 12.38 94.7398 12.5C95.0065 12.62 95.3265 12.68 95.6998 12.68C96.0598 12.68 96.3531 12.6333 96.5798 12.54C96.8065 12.4333 96.9731 12.2933 97.0798 12.12C97.1998 11.9467 97.2598 11.7667 97.2598 11.58C97.2598 11.3 97.1798 11.0867 97.0198 10.94C96.8598 10.78 96.6265 10.6533 96.3198 10.56C96.0131 10.4667 95.6398 10.3733 95.1998 10.28C94.7198 10.1867 94.2465 10.0733 93.7798 9.94C93.3265 9.79333 92.9198 9.61333 92.5598 9.4C92.1998 9.18667 91.9131 8.91333 91.6998 8.58C91.4865 8.24667 91.3798 7.83333 91.3798 7.34C91.3798 6.74 91.5398 6.20667 91.8598 5.74C92.1798 5.26 92.6465 4.88 93.2598 4.6C93.8731 4.32 94.6131 4.18 95.4798 4.18C96.6931 4.18 97.6531 4.45333 98.3598 5C99.0665 5.54667 99.4865 6.3 99.6198 7.26H97.0798C96.9998 6.95333 96.8198 6.71333 96.5398 6.54C96.2731 6.35333 95.9131 6.26 95.4598 6.26C94.9798 6.26 94.6131 6.34667 94.3598 6.52C94.1065 6.69333 93.9798 6.92 93.9798 7.2C93.9798 7.38667 94.0598 7.55333 94.2198 7.7C94.3931 7.84667 94.6331 7.97333 94.9398 8.08C95.2465 8.17333 95.6198 8.26667 96.0598 8.36C96.8331 8.52 97.5131 8.70667 98.0998 8.92C98.6865 9.12 99.1465 9.41333 99.4798 9.8C99.8131 10.1733 99.9798 10.72 99.9798 11.44C99.9798 12.08 99.8065 12.6533 99.4598 13.16C99.1131 13.6533 98.6198 14.04 97.9798 14.32C97.3531 14.6 96.6065 14.74 95.7398 14.74Z" fill="#111111"/>
</svg>
