<svg width="756" height="300" viewBox="0 0 756 300" fill="none" xmlns="http://www.w3.org/2000/svg">
<rect y="115" width="756" height="163" fill="white"/>
<path d="M78.125 193V105.5H93.125V193H78.125ZM22.875 193V105.5H37.875V193H22.875ZM35.625 154.5V142.25H81V154.5H35.625ZM150.763 194.5C142.346 194.5 134.888 192.625 128.388 188.875C121.971 185.042 116.929 179.75 113.263 173C109.596 166.167 107.763 158.25 107.763 149.25C107.763 140.333 109.596 132.5 113.263 125.75C116.929 118.917 121.971 113.583 128.388 109.75C134.888 105.917 142.346 104 150.763 104C159.346 104 166.888 105.917 173.388 109.75C179.888 113.583 184.929 118.917 188.513 125.75C192.096 132.5 193.888 140.333 193.888 149.25C193.888 158.25 192.096 166.167 188.513 173C184.929 179.75 179.888 185.042 173.388 188.875C166.888 192.625 159.346 194.5 150.763 194.5ZM150.888 181C156.471 181 161.346 179.75 165.513 177.25C169.679 174.667 172.888 171 175.138 166.25C177.388 161.5 178.513 155.833 178.513 149.25C178.513 142.667 177.388 137 175.138 132.25C172.888 127.5 169.679 123.875 165.513 121.375C161.346 118.792 156.471 117.5 150.888 117.5C145.304 117.5 140.429 118.792 136.263 121.375C132.096 123.875 128.846 127.5 126.513 132.25C124.263 137 123.138 142.667 123.138 149.25C123.138 155.833 124.263 161.5 126.513 166.25C128.846 171 132.096 174.667 136.263 177.25C140.429 179.75 145.304 181 150.888 181ZM208.544 193V105.5H226.294L254.294 162L282.044 105.5H299.919V193H284.919V131.25L260.169 180.75H248.419L223.544 131.375V193H208.544ZM317.675 193V105.5H374.175V117.625H332.675V142.75H370.425V154.625H332.675V180.875H374.175V193H317.675ZM410.315 193V117.625H384.565V105.5H450.94V117.625H425.19V193H410.315ZM463.305 193V105.5H494.68C501.596 105.5 507.305 106.708 511.805 109.125C516.388 111.458 519.763 114.625 521.93 118.625C524.18 122.542 525.305 127 525.305 132C525.305 136.667 524.221 141 522.055 145C519.888 149 516.513 152.208 511.93 154.625C507.346 157.042 501.471 158.25 494.305 158.25H478.305V193H463.305ZM508.93 193L490.555 154.375H506.805L526.055 193H508.93ZM478.305 147.125H493.68C499.263 147.125 503.346 145.792 505.93 143.125C508.596 140.375 509.93 136.792 509.93 132.375C509.93 128.042 508.638 124.583 506.055 122C503.471 119.333 499.346 118 493.68 118H478.305V147.125ZM540.819 193V105.5H555.819V193H540.819ZM612.287 194.5C603.62 194.5 596.12 192.625 589.787 188.875C583.537 185.042 578.704 179.75 575.287 173C571.954 166.167 570.287 158.292 570.287 149.375C570.287 140.375 571.954 132.5 575.287 125.75C578.704 118.917 583.537 113.583 589.787 109.75C596.12 105.917 603.62 104 612.287 104C622.704 104 631.204 106.583 637.787 111.75C644.37 116.833 648.537 124.042 650.287 133.375H633.787C632.62 128.458 630.245 124.583 626.662 121.75C623.079 118.917 618.245 117.5 612.162 117.5C606.662 117.5 601.912 118.792 597.912 121.375C593.995 123.875 590.954 127.542 588.787 132.375C586.704 137.125 585.662 142.792 585.662 149.375C585.662 155.958 586.704 161.625 588.787 166.375C590.954 171.042 593.995 174.667 597.912 177.25C601.912 179.75 606.662 181 612.162 181C618.245 181 623.079 179.708 626.662 177.125C630.245 174.458 632.62 170.792 633.787 166.125H650.287C648.62 174.958 644.454 181.917 637.787 187C631.204 192 622.704 194.5 612.287 194.5ZM694.34 194.5C688.007 194.5 682.382 193.375 677.465 191.125C672.548 188.875 668.715 185.667 665.965 181.5C663.215 177.333 661.798 172.375 661.715 166.625H677.59C677.59 169.542 678.257 172.167 679.59 174.5C681.007 176.75 682.923 178.542 685.34 179.875C687.84 181.208 690.84 181.875 694.34 181.875C697.34 181.875 699.923 181.417 702.09 180.5C704.34 179.5 706.048 178.125 707.215 176.375C708.465 174.542 709.09 172.417 709.09 170C709.09 167.25 708.423 165 707.09 163.25C705.84 161.417 704.09 159.875 701.84 158.625C699.59 157.375 697.007 156.292 694.09 155.375C691.173 154.375 688.09 153.333 684.84 152.25C677.923 149.917 672.715 146.958 669.215 143.375C665.715 139.708 663.965 134.833 663.965 128.75C663.965 123.667 665.173 119.292 667.59 115.625C670.007 111.958 673.382 109.125 677.715 107.125C682.132 105.042 687.215 104 692.965 104C698.798 104 703.882 105.042 708.215 107.125C712.632 109.208 716.09 112.125 718.59 115.875C721.173 119.542 722.507 123.958 722.59 129.125H706.59C706.507 126.958 705.923 124.958 704.84 123.125C703.757 121.208 702.173 119.667 700.09 118.5C698.09 117.25 695.632 116.625 692.715 116.625C690.215 116.542 687.965 116.958 685.965 117.875C684.048 118.708 682.507 119.958 681.34 121.625C680.257 123.208 679.715 125.208 679.715 127.625C679.715 129.958 680.215 131.917 681.215 133.5C682.298 135 683.84 136.292 685.84 137.375C687.84 138.375 690.173 139.333 692.84 140.25C695.507 141.167 698.423 142.167 701.59 143.25C705.923 144.667 709.84 146.417 713.34 148.5C716.923 150.5 719.757 153.125 721.84 156.375C723.923 159.625 724.965 163.833 724.965 169C724.965 173.5 723.798 177.708 721.465 181.625C719.132 185.458 715.715 188.583 711.215 191C706.715 193.333 701.09 194.5 694.34 194.5Z" fill="black"/>
</svg>
