<svg width="756" height="300" viewBox="0 0 756 300" fill="none" xmlns="http://www.w3.org/2000/svg">
<rect y="115" width="756" height="163" fill="white"/>
<path d="M65.3 184V114H77.3V184H65.3ZM21.1 184V114H33.1V184H21.1ZM31.3 153.2V143.4H67.6V153.2H31.3ZM123.41 185.2C116.677 185.2 110.71 183.7 105.51 180.7C100.377 177.633 96.3435 173.4 93.4102 168C90.4768 162.533 89.0102 156.2 89.0102 149C89.0102 141.867 90.4768 135.6 93.4102 130.2C96.3435 124.733 100.377 120.467 105.51 117.4C110.71 114.333 116.677 112.8 123.41 112.8C130.277 112.8 136.31 114.333 141.51 117.4C146.71 120.467 150.743 124.733 153.61 130.2C156.477 135.6 157.91 141.867 157.91 149C157.91 156.2 156.477 162.533 153.61 168C150.743 173.4 146.71 177.633 141.51 180.7C136.31 183.7 130.277 185.2 123.41 185.2ZM123.51 174.4C127.977 174.4 131.877 173.4 135.21 171.4C138.543 169.333 141.11 166.4 142.91 162.6C144.71 158.8 145.61 154.267 145.61 149C145.61 143.733 144.71 139.2 142.91 135.4C141.11 131.6 138.543 128.7 135.21 126.7C131.877 124.633 127.977 123.6 123.51 123.6C119.043 123.6 115.143 124.633 111.81 126.7C108.477 128.7 105.877 131.6 104.01 135.4C102.21 139.2 101.31 143.733 101.31 149C101.31 154.267 102.21 158.8 104.01 162.6C105.877 166.4 108.477 169.333 111.81 171.4C115.143 173.4 119.043 174.4 123.51 174.4ZM169.635 184V114H183.835L206.235 159.2L228.435 114H242.735V184H230.735V134.6L210.935 174.2H201.535L181.635 134.7V184H169.635ZM256.94 184V114H302.14V123.7H268.94V143.8H299.14V153.3H268.94V174.3H302.14V184H256.94ZM331.052 184V123.7H310.452V114H363.552V123.7H342.952V184H331.052ZM373.444 184V114H398.544C404.077 114 408.644 114.967 412.244 116.9C415.91 118.767 418.61 121.3 420.344 124.5C422.144 127.633 423.044 131.2 423.044 135.2C423.044 138.933 422.177 142.4 420.444 145.6C418.71 148.8 416.01 151.367 412.344 153.3C408.677 155.233 403.977 156.2 398.244 156.2H385.444V184H373.444ZM409.944 184L395.244 153.1H408.244L423.644 184H409.944ZM385.444 147.3H397.744C402.21 147.3 405.477 146.233 407.544 144.1C409.677 141.9 410.744 139.033 410.744 135.5C410.744 132.033 409.71 129.267 407.644 127.2C405.577 125.067 402.277 124 397.744 124H385.444V147.3ZM435.455 184V114H447.455V184H435.455ZM492.63 185.2C485.696 185.2 479.696 183.7 474.63 180.7C469.63 177.633 465.763 173.4 463.03 168C460.363 162.533 459.03 156.233 459.03 149.1C459.03 141.9 460.363 135.6 463.03 130.2C465.763 124.733 469.63 120.467 474.63 117.4C479.696 114.333 485.696 112.8 492.63 112.8C500.963 112.8 507.763 114.867 513.03 119C518.296 123.067 521.63 128.833 523.03 136.3H509.83C508.896 132.367 506.996 129.267 504.13 127C501.263 124.733 497.396 123.6 492.53 123.6C488.13 123.6 484.33 124.633 481.13 126.7C477.996 128.7 475.563 131.633 473.83 135.5C472.163 139.3 471.33 143.833 471.33 149.1C471.33 154.367 472.163 158.9 473.83 162.7C475.563 166.433 477.996 169.333 481.13 171.4C484.33 173.4 488.13 174.4 492.53 174.4C497.396 174.4 501.263 173.367 504.13 171.3C506.996 169.167 508.896 166.233 509.83 162.5H523.03C521.696 169.567 518.363 175.133 513.03 179.2C507.763 183.2 500.963 185.2 492.63 185.2ZM558.272 185.2C553.205 185.2 548.705 184.3 544.772 182.5C540.839 180.7 537.772 178.133 535.572 174.8C533.372 171.467 532.239 167.5 532.172 162.9H544.872C544.872 165.233 545.405 167.333 546.472 169.2C547.605 171 549.139 172.433 551.072 173.5C553.072 174.567 555.472 175.1 558.272 175.1C560.672 175.1 562.739 174.733 564.472 174C566.272 173.2 567.639 172.1 568.572 170.7C569.572 169.233 570.072 167.533 570.072 165.6C570.072 163.4 569.539 161.6 568.472 160.2C567.472 158.733 566.072 157.5 564.272 156.5C562.472 155.5 560.405 154.633 558.072 153.9C555.739 153.1 553.272 152.267 550.672 151.4C545.139 149.533 540.972 147.167 538.172 144.3C535.372 141.367 533.972 137.467 533.972 132.6C533.972 128.533 534.939 125.033 536.872 122.1C538.805 119.167 541.505 116.9 544.972 115.3C548.505 113.633 552.572 112.8 557.172 112.8C561.839 112.8 565.905 113.633 569.372 115.3C572.905 116.967 575.672 119.3 577.672 122.3C579.739 125.233 580.805 128.767 580.872 132.9H568.072C568.005 131.167 567.539 129.567 566.672 128.1C565.805 126.567 564.539 125.333 562.872 124.4C561.272 123.4 559.305 122.9 556.972 122.9C554.972 122.833 553.172 123.167 551.572 123.9C550.039 124.567 548.805 125.567 547.872 126.9C547.005 128.167 546.572 129.767 546.572 131.7C546.572 133.567 546.972 135.133 547.772 136.4C548.639 137.6 549.872 138.633 551.472 139.5C553.072 140.3 554.939 141.067 557.072 141.8C559.205 142.533 561.539 143.333 564.072 144.2C567.539 145.333 570.672 146.733 573.472 148.4C576.339 150 578.605 152.1 580.272 154.7C581.939 157.3 582.772 160.667 582.772 164.8C582.772 168.4 581.839 171.767 579.972 174.9C578.105 177.967 575.372 180.467 571.772 182.4C568.172 184.267 563.672 185.2 558.272 185.2Z" fill="black"/>
</svg>
